<svg version="1.1" id="Layer_1" xmlns="http://www.w3.org/2000/svg" xmlns:xlink="http://www.w3.org/1999/xlink" x="0px" y="0px"
	 width="100%" viewBox="0 0 600 421" enable-background="new 0 0 600 421" xml:space="preserve">
<path fill="#000000" opacity="1.000000" stroke="none" 
	d="
M417.000000,422.000000 
	C278.033875,422.000000 139.567780,422.000000 1.050832,422.000000 
	C1.050832,281.734894 1.050832,141.469788 1.050832,1.102336 
	C200.882782,1.102336 400.765656,1.102336 600.824219,1.102336 
	C600.824219,141.333145 600.824219,281.666565 600.824219,422.000000 
	C539.803040,422.000000 478.651520,422.000000 417.000000,422.000000 
M171.034500,179.601883 
	C156.786194,201.420090 142.537888,223.238297 127.673439,246.000000 
	C134.345108,246.000000 139.562027,245.428635 144.589188,246.160568 
	C149.622314,246.893387 152.201019,244.288330 154.530304,240.899353 
	C157.180313,237.043747 159.479492,232.949005 162.006790,229.006699 
	C169.526733,217.276428 177.114090,205.589279 184.608856,193.843018 
	C187.015533,190.071091 189.216171,186.167679 191.567932,182.229233 
	C204.872360,203.405411 218.205780,224.627731 231.633438,246.000046 
	C236.362595,246.000046 241.197830,245.858078 246.014923,246.091248 
	C247.364639,246.156586 249.172134,246.977753 249.900330,248.045227 
	C255.436264,256.160187 260.712372,264.451660 266.153534,272.632233 
	C275.456940,286.619568 284.868195,300.535309 294.147278,314.538666 
	C303.193787,328.190979 312.091888,341.941620 321.129150,355.600128 
	C328.689941,367.027130 336.409882,378.348938 343.961639,389.781830 
	C350.141418,399.137695 356.177124,408.588684 362.327087,418.075134 
	C364.048065,416.847687 365.496582,415.814575 367.084930,414.681702 
	C276.790314,278.025146 186.637650,141.583420 95.921539,4.288948 
	C94.565979,6.325567 92.049271,8.861425 92.502594,9.618215 
	C97.052628,17.214172 102.068855,24.532387 106.995682,31.900818 
	C116.306976,45.826565 125.682434,59.709549 134.956650,73.659882 
	C139.141418,79.954643 143.088348,86.407181 147.248489,92.718727 
	C153.186844,101.728073 159.232635,110.666550 165.212708,119.648491 
	C171.195694,128.634842 177.181931,137.619278 183.111435,146.640884 
	C185.884323,150.859787 188.526932,155.164322 190.930374,158.959167 
	C187.819183,160.089081 184.214905,160.281509 182.710312,162.157715 
	C178.505264,167.401382 175.169022,173.341751 171.034500,179.601883 
M12.000000,181.500122 
	C12.000000,202.925491 12.000000,224.350861 12.000000,245.715302 
	C18.973007,245.715302 25.378214,245.715302 32.173256,245.715302 
	C32.173256,233.360458 32.173256,221.285522 32.173256,209.283249 
	C53.306614,209.283249 74.041359,209.283249 95.170311,209.283249 
	C95.170311,221.636642 95.170311,233.711609 95.170311,245.713776 
	C101.976570,245.713776 108.380707,245.713776 114.718277,245.713776 
	C114.718277,217.026962 114.718277,188.627258 114.718277,160.284119 
	C108.028183,160.284119 101.623039,160.284119 94.827362,160.284119 
	C94.827362,170.972183 94.827362,181.381302 94.827362,191.716797 
	C73.693474,191.716797 52.958729,191.716797 31.829258,191.716797 
	C31.829258,181.029678 31.829258,170.620575 31.829258,160.286697 
	C25.022757,160.286697 18.617323,160.286697 12.000000,160.286697 
	C12.000000,167.214645 12.000000,173.857422 12.000000,181.500122 
M548.499878,241.000000 
	C555.598206,241.000000 562.696533,241.000000 570.177490,241.000000 
	C570.177490,253.643936 570.177490,265.718170 570.177490,277.710175 
	C576.983826,277.710175 583.389587,277.710175 590.000000,277.710175 
	C590.000000,263.280060 590.000000,249.138794 590.000000,234.997528 
	C590.000000,220.736679 590.000000,206.475815 590.000000,192.287750 
	C583.020569,192.287750 576.615051,192.287750 569.820251,192.287750 
	C569.820251,203.312851 569.820251,214.055328 569.820251,224.713272 
	C548.686401,224.713272 527.951599,224.713272 506.822296,224.713272 
	C506.822296,213.689133 506.822296,202.946793 506.822296,192.290146 
	C500.015350,192.290146 493.610931,192.290146 487.000000,192.290146 
	C487.000000,206.720688 487.000000,220.862030 487.000000,235.003372 
	C487.000000,249.264130 487.000000,263.524902 487.000000,277.711914 
	C493.980133,277.711914 500.385712,277.711914 507.180023,277.711914 
	C507.180023,265.353546 507.180023,253.278595 507.180023,241.000000 
	C520.884216,241.000000 534.192078,241.000000 548.499878,241.000000 
M475.000000,265.608276 
	C475.000000,264.168091 475.000000,262.727936 475.000000,261.000000 
	C472.877960,261.000000 471.241333,261.000000 469.604736,261.000000 
	C448.457092,261.000000 427.307922,260.857849 406.162750,261.086395 
	C399.791565,261.155243 398.822357,259.219147 398.921722,254.068329 
	C399.162567,241.584229 398.999634,229.092316 399.000122,216.603561 
	C399.000427,209.638260 400.634064,208.004150 407.658569,208.002136 
	C428.639679,207.996140 449.620819,208.004593 470.601929,207.989868 
	C472.028656,207.988876 473.455261,207.842682 474.677063,207.775330 
	C474.677063,202.278259 474.677063,197.207184 474.677063,192.000000 
	C466.873810,192.000000 459.391541,191.908310 451.912201,192.017944 
	C432.852966,192.297363 413.790405,192.510574 394.738770,193.073975 
	C386.693115,193.311905 379.060059,201.528473 379.024536,209.413727 
	C378.945801,226.897644 378.712433,244.390961 379.247009,261.858856 
	C379.351685,265.280090 382.019684,269.208862 384.590088,271.846497 
	C389.918335,277.313995 397.446869,277.782776 404.480133,277.883362 
	C426.622314,278.199982 448.771942,278.002808 470.918671,277.992676 
	C472.194092,277.992096 473.469421,277.885986 475.000000,277.817566 
	C475.000000,273.851288 475.000000,270.216949 475.000000,265.608276 
M306.000000,266.482910 
	C306.000000,270.253723 306.000000,274.024536 306.000000,277.715424 
	C313.306030,277.715424 320.045197,277.715424 327.170776,277.715424 
	C327.170776,254.362595 327.170776,231.291931 327.170776,207.830292 
	C341.303101,207.830292 355.044434,207.830292 368.713348,207.830292 
	C368.713348,202.356552 368.713348,197.284714 368.713348,192.281647 
	C333.360626,192.281647 298.294525,192.281647 263.284821,192.281647 
	C263.284821,197.639832 263.284821,202.711655 263.284821,208.173569 
	C277.639771,208.173569 291.713989,208.173569 306.000000,208.173569 
	C306.000000,227.543259 306.000000,246.516144 306.000000,266.482910 
M458.999603,129.336365 
	C458.999603,134.451782 458.999603,139.567200 458.999603,144.723480 
	C461.570648,144.723480 463.631409,144.723480 465.731140,144.723480 
	C465.731140,133.365753 465.731140,122.286041 465.731140,111.399529 
	C460.351288,109.769287 457.565582,111.788467 455.915497,116.778282 
	C454.739838,120.333321 452.509979,123.539711 450.497223,127.385849 
	C448.033722,122.946388 445.280731,119.292603 443.906433,115.178291 
	C442.181427,110.013924 438.966522,110.713295 435.332550,111.313263 
	C435.332550,122.727020 435.332550,133.797470 435.332550,144.818726 
	C437.619293,144.818726 439.571960,144.818726 442.000000,144.818726 
	C442.000000,142.035172 442.000000,139.413284 442.000000,136.791397 
	C442.000000,134.045441 442.000000,131.299500 442.000000,128.553543 
	C443.997864,130.333084 444.806335,132.545746 446.062347,134.465622 
	C446.965302,135.845856 448.621338,137.914032 449.665344,137.763275 
	C451.547638,137.491470 453.607544,136.110428 454.881805,134.594635 
	C456.288849,132.920898 456.876801,130.565247 457.892334,128.542175 
	C457.967499,128.392471 458.613556,128.529373 458.999603,129.336365 
M148.081894,115.558113 
	C148.251450,110.684464 145.363235,108.316338 141.201172,106.664940 
	C132.078247,103.045204 123.255478,108.527512 123.018837,118.187759 
	C122.908745,122.682098 122.998726,127.181358 123.000259,131.678391 
	C123.003845,142.162186 131.525894,148.581055 141.176849,144.696899 
	C143.987503,143.565720 147.245590,140.096893 147.711487,137.272812 
	C148.849243,130.376373 148.474442,123.230385 148.081894,115.558113 
M248.811386,115.000107 
	C252.431473,115.000107 256.051544,115.000107 259.791077,115.000107 
	C259.791077,112.165527 259.791077,109.762665 259.791077,107.210655 
	C252.511124,107.210655 245.441055,107.210655 238.198792,107.210655 
	C238.198792,114.164757 238.198792,120.907738 238.198792,128.671936 
	C241.451538,127.848038 244.279816,126.932457 247.180313,126.482597 
	C248.590515,126.263878 251.111511,126.487701 251.446106,127.250092 
	C252.701828,130.111084 253.528214,133.456726 251.157349,136.118668 
	C250.372162,137.000259 247.200592,137.321167 246.935608,136.858536 
	C244.377533,132.392410 240.585251,134.236374 237.118164,134.261993 
	C236.134003,141.346268 242.353607,146.110550 252.655121,145.025528 
	C259.139191,144.342560 262.273987,137.659454 260.996826,126.837997 
	C260.142212,119.596878 254.906036,116.619530 244.624741,118.834595 
	C246.287796,116.887260 247.093018,115.944420 248.811386,115.000107 
M220.622025,136.948944 
	C223.414917,133.297272 226.073608,129.532242 229.036789,126.024422 
	C232.281189,122.183678 233.278885,114.038223 230.226059,110.843102 
	C226.524826,106.969345 221.878204,105.055214 216.413376,106.247154 
	C210.414673,107.555534 208.311447,112.186806 207.332413,118.284569 
	C210.455399,117.806999 213.304520,116.739395 216.119476,115.588310 
	C217.744736,114.923714 219.852921,113.096062 220.801682,113.592468 
	C223.008331,114.747002 224.679199,117.067635 222.615372,119.818863 
	C219.213303,124.354065 215.672714,128.785095 212.226944,133.287903 
	C209.652008,136.652756 205.623016,139.398788 207.270218,144.684570 
	C215.135025,144.684570 223.015137,144.684570 230.687286,144.684570 
	C230.687286,141.949051 230.687286,139.535400 230.687286,136.996841 
	C227.393753,136.996841 224.411240,136.996841 220.622025,136.948944 
M107.047768,123.500732 
	C104.254585,127.239662 102.090958,131.824524 98.502617,134.494995 
	C94.380905,137.562424 95.171967,140.930389 95.066208,144.785889 
	C102.850418,144.785889 110.254654,144.785889 117.796936,144.785889 
	C117.796936,142.166626 117.796936,139.763885 117.796936,136.987595 
	C114.228607,136.987595 110.843964,136.987595 108.116508,136.987595 
	C111.480095,131.438828 115.050850,126.000618 118.142235,120.302345 
	C120.523064,115.913834 118.198036,112.010445 115.278206,108.937737 
	C111.956261,105.441864 104.769936,104.985146 100.211655,107.312149 
	C95.928673,109.498619 94.302002,112.930809 95.188614,117.554840 
	C100.541191,120.008179 102.669975,115.406807 105.605110,112.954239 
	C111.179588,115.604614 111.691643,118.421936 107.047768,123.500732 
M536.000000,139.373322 
	C536.000000,141.154114 536.000000,142.934891 536.000000,144.712311 
	C538.254639,144.712311 539.982910,144.712311 541.482910,144.712311 
	C542.000427,139.205933 542.256226,133.962631 543.157959,128.832870 
	C543.359436,127.686668 545.797546,126.317360 547.264221,126.245750 
	C548.115967,126.204170 549.789307,128.496353 549.873657,129.816269 
	C550.188416,134.743530 549.999390,139.702942 549.999390,144.741287 
	C552.543213,144.741287 554.600952,144.741287 557.000000,144.741287 
	C557.000000,140.362549 556.863647,136.227402 557.024780,132.103882 
	C557.575562,118.014328 552.360107,119.736008 543.185913,120.288086 
	C542.861633,120.307610 542.542542,120.413551 541.829102,120.559273 
	C541.829102,117.203201 541.829102,114.264313 541.829102,111.269135 
	C539.775391,111.269135 538.047852,111.269135 536.000000,111.269135 
	C536.000000,120.490273 536.000000,129.447662 536.000000,139.373322 
M436.088104,306.483643 
	C437.405762,307.440704 439.004974,308.170013 439.994263,309.392731 
	C445.425262,316.105225 448.091034,316.421234 454.687073,310.831909 
	C456.252411,309.505463 457.813751,308.174255 460.018005,306.300140 
	C460.018005,308.753418 459.480408,310.575500 460.149719,311.635406 
	C461.051392,313.063202 462.882965,313.903778 464.315460,314.996368 
	C465.210266,313.727966 466.679016,312.543457 466.879211,311.173523 
	C467.283844,308.404755 467.247711,305.505402 466.911407,302.718079 
	C466.693573,300.912415 465.818176,297.878418 464.891968,297.742126 
	C463.047729,297.470642 460.630493,298.378357 459.048309,299.584076 
	C455.311279,302.432007 451.924744,305.739838 448.418030,308.842621 
	C444.574646,305.375671 440.967194,301.947296 437.167358,298.747345 
	C433.941956,296.031189 430.348511,296.332397 430.111420,299.233307 
	C429.746765,303.694794 429.854675,308.219086 430.160522,312.689484 
	C430.217621,313.524323 432.099365,314.726379 433.227417,314.834198 
	C434.071411,314.914856 435.626038,313.652222 435.857788,312.733765 
	C436.292389,311.011475 435.998047,309.105225 436.088104,306.483643 
M478.781097,120.000000 
	C476.064392,120.925369 473.347687,121.850746 470.630981,122.776123 
	C470.742615,123.628876 470.854248,124.481628 470.965881,125.334389 
	C473.492737,125.560997 476.015747,125.858147 478.547455,125.995102 
	C481.273682,126.142570 484.658325,125.057358 484.821472,130.002365 
	C482.175354,130.002365 479.532227,129.467087 477.257477,130.153122 
	C474.989380,130.837128 471.610565,132.512909 471.350403,134.167618 
	C470.868805,137.230743 468.848907,142.154022 473.996704,143.375275 
	C479.409332,144.659363 485.089203,144.816711 490.999908,145.506989 
	C490.999908,138.446075 490.823944,132.463608 491.058655,126.497292 
	C491.229553,122.152763 488.618103,120.702843 485.158997,120.064178 
	C483.387482,119.737091 481.506561,120.002419 478.781097,120.000000 
M401.950165,298.024872 
	C399.427643,300.154968 397.060425,308.026611 399.299988,310.892822 
	C401.055298,313.139313 404.889282,313.995758 407.968140,314.890106 
	C409.957001,315.467896 412.249786,315.004639 414.406372,314.999146 
	C424.544067,314.973297 426.206787,313.212952 426.042328,303.265564 
	C425.986115,299.864868 424.832184,297.960297 421.200989,297.987579 
	C415.078064,298.033569 408.954590,298.001068 401.950165,298.024872 
M590.000000,122.518257 
	C590.000000,118.753647 590.000000,114.989029 590.000000,111.328598 
	C579.684204,109.723709 575.031677,113.483437 577.406677,121.576355 
	C578.745483,121.058342 580.070190,120.545784 582.028198,119.788208 
	C582.028198,128.412125 582.028198,136.587860 582.028198,144.686493 
	C584.979614,144.686493 587.371765,144.686493 590.000000,144.686493 
	C590.000000,137.421082 590.000000,130.466339 590.000000,122.518257 
M360.887604,304.015625 
	C355.273468,304.015625 349.659332,304.015625 344.045197,304.015625 
	C344.022644,303.535217 344.000092,303.054810 343.977539,302.574402 
	C347.689941,302.040649 351.402344,301.506866 355.988647,300.847473 
	C351.557892,295.693756 347.358673,297.234741 343.034027,297.883118 
	C339.374176,298.431885 337.252441,299.899292 337.023682,303.583496 
	C336.758667,307.851105 336.133759,312.865326 341.840820,313.788239 
	C347.944824,314.775299 354.228485,314.733185 360.439819,314.877197 
	C361.271576,314.896484 362.139069,313.375214 362.990021,312.567383 
	C362.018005,311.712280 361.087158,310.181030 360.066833,310.118896 
	C355.599091,309.846802 351.104797,310.039948 346.621735,309.966278 
	C345.715881,309.951416 344.817078,309.511383 343.915009,309.267395 
	C343.965302,308.844849 344.015564,308.422333 344.065826,307.999786 
	C349.129822,307.999786 354.194611,308.052612 359.257477,307.977234 
	C361.738953,307.940308 364.731140,308.005280 360.887604,304.015625 
M389.968781,314.982758 
	C391.645508,313.959839 394.561829,313.139282 394.767975,311.876343 
	C395.401855,307.992950 395.260590,303.911530 394.829407,299.971802 
	C394.709045,298.871887 392.542206,297.995941 391.314178,297.017273 
	C390.543121,298.073181 389.270142,299.056763 389.105347,300.200043 
	C388.760925,302.590271 389.001007,305.064758 389.001007,308.095367 
	C383.598938,304.627563 378.703156,301.334930 373.637573,298.328339 
	C372.202148,297.476410 370.122009,296.889282 368.625793,297.281189 
	C367.780792,297.502502 367.188843,299.937469 367.070374,301.422211 
	C366.833252,304.393494 366.990875,307.397003 367.003113,310.387177 
	C367.011841,312.511688 366.543457,314.920288 369.888550,315.006104 
	C373.173676,315.090302 373.046539,312.851898 373.006683,310.604614 
	C372.973877,308.751984 372.999969,306.898315 372.999969,304.081696 
	C379.097046,308.089142 384.147552,311.408691 389.968781,314.982758 
M517.037170,142.522064 
	C524.301758,146.748703 530.325989,146.104614 534.047119,140.541901 
	C532.786621,139.335800 531.500427,138.105133 530.287476,136.944550 
	C522.822754,140.592865 520.840210,139.378723 520.999939,131.544540 
	C521.111694,126.068253 522.308350,125.437843 528.043518,126.344536 
	C529.835144,126.627777 531.913574,125.096840 533.860718,124.396355 
	C532.625977,122.962746 531.448242,120.372925 530.146057,120.308784 
	C525.966919,120.102943 521.723877,120.705383 517.548584,121.298897 
	C516.656982,121.425644 515.480286,122.705673 515.228638,123.663002 
	C513.598328,129.865524 512.555359,136.099792 517.037170,142.522064 
M520.450684,310.000000 
	C517.454468,310.003662 514.438171,309.815674 511.474243,310.126984 
	C510.577789,310.221130 509.415344,311.593109 509.162201,312.581482 
	C509.008972,313.179565 510.376221,314.874969 511.046753,314.867432 
	C518.355225,314.785614 525.892822,316.265045 532.749023,312.542267 
	C533.829773,311.955444 534.848145,310.175110 534.835938,308.957306 
	C534.823669,307.738983 533.750244,305.938324 532.666809,305.452515 
	C530.672913,304.558441 528.348145,304.289642 526.129761,304.034637 
	C522.587646,303.627502 519.019714,303.444702 515.462646,303.167084 
	C517.355408,301.998718 519.210999,302.232574 520.965515,301.912415 
	C522.046997,301.715088 522.974365,300.672668 523.970947,300.009674 
	C523.099243,299.051544 522.190186,297.246033 521.362305,297.282501 
	C517.848267,297.437317 514.190674,297.684448 510.948364,298.881134 
	C509.777740,299.313202 509.199219,302.502319 509.201385,304.432343 
	C509.202362,305.290497 511.201324,306.597565 512.485474,306.909058 
	C515.142212,307.553619 517.921326,307.741058 520.662048,307.978149 
	C523.103455,308.189331 525.561035,308.214050 528.011414,308.321075 
	C528.001038,308.880737 527.990601,309.440369 527.980164,310.000000 
	C525.791687,310.000000 523.603271,310.000000 520.450684,310.000000 
M47.983120,292.998901 
	C54.673576,292.753845 61.464077,293.538269 68.079735,292.523590 
	C68.100067,291.543793 68.120399,290.563995 68.140732,289.584167 
	C61.558823,289.190704 54.976913,288.797211 48.395008,288.403748 
	C48.435902,287.935638 48.476795,287.467529 48.517693,286.999420 
	C53.833282,286.999420 59.158672,287.174255 64.457626,286.877258 
	C65.792892,286.802429 67.043541,285.217682 68.333069,284.326813 
	C68.060127,283.884552 67.787186,283.442261 67.514244,283.000000 
	C64.202560,283.000000 60.890877,283.000000 57.579197,283.000000 
	C54.368282,283.000000 51.157364,283.000000 47.946449,283.000000 
	C47.986145,282.331085 48.025841,281.662170 48.065533,280.993256 
	C50.819939,280.993256 53.596500,281.191162 56.316807,280.886597 
	C57.277142,280.779083 58.099991,279.443634 58.985607,278.668823 
	C58.305084,277.917114 57.600151,276.497864 56.947983,276.521729 
	C52.616203,276.680084 48.050499,276.461334 44.099850,277.873291 
	C42.647369,278.392395 42.527210,282.980652 42.049965,285.755920 
	C41.774677,287.356720 42.000000,289.043671 42.000000,290.528778 
	C43.888832,291.441681 45.482716,292.212036 47.983120,292.998901 
M120.273193,282.000122 
	C117.666191,282.000122 115.059189,282.000122 112.452187,282.000122 
	C114.220772,280.999115 116.053123,281.278992 117.739685,280.903687 
	C118.923790,280.640198 119.909256,279.484039 120.983421,278.726501 
	C119.894501,277.817932 118.828659,276.178467 117.712173,276.143250 
	C114.820427,276.051971 111.767601,276.251801 109.053551,277.157715 
	C107.439880,277.696381 105.196198,279.884186 105.300583,281.161896 
	C105.439346,282.860535 107.370766,285.489624 108.916473,285.799164 
	C114.035660,286.824371 119.327408,286.987946 124.552956,287.482086 
	C123.171043,288.574951 121.691765,288.940186 120.205582,288.970856 
	C116.043213,289.056854 111.873390,288.901672 107.717484,289.087463 
	C106.809059,289.128082 105.946304,290.190399 105.062508,290.782196 
	C105.801079,291.516388 106.552490,292.898254 107.276230,292.883911 
	C114.008331,292.750427 120.733238,292.253723 127.465340,292.120209 
	C131.321518,292.043762 131.645111,289.401154 130.816605,287.075134 
	C130.221802,285.405212 128.104202,284.023499 126.356667,283.095795 
	C124.860306,282.301422 122.924561,282.334717 120.273193,282.000122 
M192.578766,289.999969 
	C197.988739,290.969666 203.398697,291.939331 209.231430,292.984802 
	C208.847839,291.637085 208.864716,290.474213 208.291824,289.878662 
	C204.053635,285.472748 199.857483,280.995453 195.244873,277.006927 
	C194.322342,276.209229 191.194260,276.796509 189.901688,277.799744 
	C185.008362,281.597931 180.451691,285.829803 175.769089,289.899445 
	C176.230667,290.818024 176.692245,291.736572 177.153824,292.655151 
	C179.395081,292.438995 181.666199,292.381226 183.869873,291.965729 
	C186.495087,291.470734 189.062454,290.668884 192.578766,289.999969 
M318.558105,176.999588 
	C319.056732,176.987503 319.873138,177.162598 320.006836,176.935577 
	C322.434753,172.813354 324.838531,172.137543 327.512390,176.742783 
	C327.709442,177.082108 328.760681,176.987183 329.415161,176.989441 
	C334.532104,177.007156 339.649139,176.999252 344.778320,176.999252 
	C344.778320,175.472687 344.778320,174.395752 344.778320,172.943176 
	C342.155121,172.943176 339.742157,172.943176 336.960938,172.943176 
	C336.960938,168.489029 336.960938,164.396835 336.960938,160.191284 
	C335.178131,160.191284 333.776978,160.191284 332.036591,160.191284 
	C332.036591,165.078110 332.036591,169.790497 332.036591,175.908264 
	C329.417999,169.842529 327.368866,165.095947 324.836395,159.229660 
	C323.493164,160.500549 321.852661,161.476486 321.065765,162.918304 
	C319.471710,165.839111 317.923798,168.921692 317.225952,172.126785 
	C316.952545,173.382462 313.310272,175.932724 318.558105,176.999588 
M481.000000,306.458588 
	C481.598480,308.721008 479.336670,312.338379 483.464020,312.929962 
	C489.892639,313.851440 496.378357,314.438690 502.859894,314.859833 
	C503.848663,314.924042 504.944885,313.334686 505.991394,312.510132 
	C504.830139,311.673584 503.717529,310.210236 502.498718,310.115723 
	C498.527130,309.807800 494.513031,309.893677 490.522522,310.034058 
	C487.499573,310.140381 486.954437,308.553192 486.950104,305.988586 
	C486.945709,303.402435 487.541748,301.858429 490.545563,301.965424 
	C494.535950,302.107513 498.544617,302.151947 502.524872,301.906097 
	C503.709045,301.832947 504.824280,300.643616 505.971100,299.965759 
	C504.923676,298.982452 503.920502,297.215240 502.821075,297.153229 
	C498.359619,296.901428 493.811279,296.758728 489.404480,297.367920 
	C484.926575,297.986938 479.262939,298.209991 481.000000,306.458588 
M252.009674,290.512360 
	C255.975418,291.201630 259.850586,295.533203 265.035187,290.371338 
	C259.904724,288.355316 255.552521,286.645081 250.468613,284.647339 
	C254.071426,283.253296 257.036438,282.323212 259.778992,280.949066 
	C261.062073,280.306213 261.915253,278.805481 262.963287,277.693542 
	C261.463806,277.416565 259.810791,276.592773 258.492950,276.962799 
	C254.124771,278.189240 249.877335,279.845764 247.182098,280.782043 
	C244.676254,278.551849 243.339981,276.347839 241.793961,276.189331 
	C238.117294,275.812347 239.079163,279.047302 239.027298,281.172485 
	C238.931656,285.090881 239.000000,289.013275 239.000000,292.870758 
	C241.245728,292.870758 242.882355,292.870758 244.780899,292.870758 
	C244.933380,291.229767 245.077026,289.683807 245.229385,288.043976 
	C247.435425,288.763763 249.388580,289.401031 252.009674,290.512360 
M322.274475,315.000000 
	C324.809113,314.542480 327.407532,314.299805 329.861694,313.571228 
	C332.715607,312.724030 334.446350,306.291870 332.436096,304.062347 
	C331.845276,303.407104 330.280640,303.028687 329.463867,303.332947 
	C328.476593,303.700775 327.458557,304.803955 327.097748,305.817993 
	C326.691986,306.958282 327.004395,308.354156 327.004395,309.641541 
	C321.786041,309.641541 316.918152,309.641541 312.347900,309.641541 
	C312.347900,306.866425 312.347900,304.456482 312.347900,301.986572 
	C315.023041,301.986572 317.374329,302.176727 319.665070,301.887360 
	C320.509949,301.780609 321.574524,300.660950 321.858795,299.783112 
	C322.067505,299.138489 321.077942,297.370728 320.776459,297.406372 
	C316.212189,297.946075 311.653137,298.602875 307.154327,299.530548 
	C306.590576,299.646790 306.134064,301.440125 306.051300,302.489807 
	C305.881897,304.638153 306.114563,306.816803 305.970642,308.968872 
	C305.797760,311.553802 306.599792,312.902893 309.428314,313.177979 
	C313.424194,313.566589 317.379486,314.372498 322.274475,315.000000 
M152.942657,292.299530 
	C152.942657,290.677246 152.942657,289.054932 152.942657,287.303589 
	C158.515747,287.303589 163.720123,287.303589 168.849075,287.303589 
	C168.999817,289.373077 169.127686,291.128754 169.267914,293.054138 
	C171.356552,292.952576 173.088303,292.868378 175.000000,292.775421 
	C175.000000,288.929535 175.153641,285.451141 174.945938,281.994507 
	C174.807632,279.692871 176.435196,276.082306 172.001358,276.058746 
	C167.504456,276.034851 169.506256,279.761261 168.940811,281.993927 
	C168.871323,282.268341 168.636856,282.501007 168.462769,282.778687 
	C163.386215,282.778687 158.298706,282.778687 153.000229,282.778687 
	C153.000229,281.751770 153.278351,280.798004 152.944412,280.169373 
	C152.162735,278.697815 151.291138,276.445709 150.091827,276.185089 
	C146.932022,275.498383 146.974747,278.114166 146.991394,280.364319 
	C147.021805,284.475616 147.000046,288.587280 147.000046,292.944916 
	C149.043274,292.944916 150.663116,292.944916 152.942657,292.299530 
M211.375580,278.151489 
	C211.250610,281.623993 210.847717,285.120850 211.148544,288.556091 
	C211.256592,289.790131 212.974335,291.773499 214.103470,291.880981 
	C220.633362,292.502594 227.205353,292.721680 233.767883,292.902893 
	C234.475220,292.922424 235.213501,291.820953 235.937439,291.239502 
	C235.206650,290.498230 234.521912,289.179749 233.736969,289.117096 
	C230.593460,288.866333 227.418854,289.001678 224.255753,289.000702 
	C216.567917,288.998291 216.567917,288.999756 217.372833,281.376862 
	C223.449661,279.693329 230.212128,282.915955 236.019592,278.629364 
	C228.187851,274.465454 220.240326,275.695465 211.375580,278.151489 
M495.778046,120.098953 
	C495.407806,128.250916 495.037567,136.402878 494.657166,144.778366 
	C497.480988,144.778366 499.535553,144.778366 502.000000,144.778366 
	C502.000000,140.125580 502.073578,135.680038 501.978271,131.238129 
	C501.891815,127.209076 502.381531,124.602356 507.609222,126.668083 
	C508.824158,127.148148 511.152435,124.810539 512.968445,123.769440 
	C511.373566,122.513138 509.901245,120.429398 508.158478,120.171196 
	C504.424286,119.617928 500.550385,120.007637 495.778046,120.098953 
M73.903389,276.000031 
	C72.606033,276.862671 71.308678,277.725342 70.011322,278.587982 
	C71.369759,279.391968 72.643456,280.578644 74.108109,280.902985 
	C75.932938,281.307098 77.915268,280.999969 80.194695,280.999969 
	C80.194695,285.364899 80.194695,289.116821 80.194695,293.051331 
	C82.322350,292.954559 84.061623,292.875427 86.157715,292.780090 
	C86.157715,288.675049 86.157715,284.921692 86.157715,280.998871 
	C88.342453,280.998871 90.238617,281.332428 91.938187,280.897614 
	C93.404190,280.522522 94.646393,279.272766 95.987541,278.409729 
	C94.586433,277.606750 93.215157,276.179565 91.778954,276.110931 
	C86.140465,275.841522 80.481529,276.000275 73.903389,276.000031 
M306.000000,173.936829 
	C306.000000,173.118637 306.000000,172.300446 306.000000,171.352386 
	C308.671082,173.555801 311.236938,175.672424 314.820068,178.628220 
	C314.820068,171.232208 314.820068,165.794128 314.820068,160.029785 
	C313.422607,160.136154 312.230072,160.226944 310.915527,160.326996 
	C310.915527,162.964325 310.915527,165.245224 310.915527,167.469437 
	C306.757538,166.272888 307.564514,158.574493 301.206116,160.270035 
	C301.206116,165.852539 301.206116,171.285919 301.206116,178.362457 
	C303.372955,176.742401 304.686218,175.760544 306.000000,173.936829 
M546.000000,166.596832 
	C546.000000,170.029099 546.000000,173.461349 546.000000,177.092575 
	C547.987183,176.960510 549.416260,176.865540 551.176697,176.748550 
	C551.176697,174.488159 551.176697,172.498001 551.176697,170.952133 
	C555.217468,171.172638 553.865479,178.978455 559.752686,176.538651 
	C559.752686,170.949051 559.752686,165.527969 559.752686,159.981964 
	C558.393860,160.058182 557.290039,160.120102 555.865845,160.199997 
	C555.865845,162.524506 555.865845,164.554520 555.865845,166.894318 
	C552.144348,164.900543 551.904358,158.668350 546.000000,160.304306 
	C546.000000,162.027405 546.000000,163.836853 546.000000,166.596832 
M27.541441,293.000000 
	C31.655067,293.000000 35.768692,293.000000 39.882320,293.000000 
	C40.111401,292.540558 40.340481,292.081116 40.569561,291.621674 
	C39.391655,290.748260 38.309566,289.355408 37.014618,289.116516 
	C34.766216,288.701782 32.386215,289.000122 30.061399,289.000092 
	C20.640423,288.999939 20.639828,289.000031 20.002016,279.578674 
	C19.979620,279.247864 20.134483,278.771454 19.966900,278.606384 
	C19.043581,277.696869 18.058910,276.206787 17.069510,276.186768 
	C16.066467,276.166412 14.352528,277.463531 14.117600,278.459137 
	C11.395621,289.994720 13.827851,293.000000 25.570110,293.000000 
	C25.902227,293.000000 26.234343,293.000000 27.541441,293.000000 
M567.126221,160.340149 
	C565.952209,161.191696 564.560486,161.857620 563.645935,162.930359 
	C561.129272,165.882217 561.400146,171.371750 563.953613,174.670578 
	C566.370239,177.792633 569.257874,177.494125 572.455322,176.103012 
	C576.863708,174.185028 576.052002,170.670380 575.746155,167.118484 
	C573.399048,167.118484 571.430115,167.118484 568.738037,167.118484 
	C569.309265,168.948624 569.782715,170.465302 570.527222,172.850357 
	C569.260376,172.456467 567.509949,172.215195 567.485474,171.856140 
	C567.306396,169.232346 567.473755,166.584900 567.521973,164.390167 
	C571.140381,165.180313 573.434082,165.681183 576.101685,166.263702 
	C575.126343,160.601578 571.510254,160.293762 567.126221,160.340149 
M246.016479,170.903793 
	C246.016479,167.313797 246.016479,163.723801 246.016479,159.936996 
	C244.016708,160.029404 242.618927,160.093994 241.000412,160.168777 
	C241.000412,163.842636 240.520233,167.233276 241.165695,170.394043 
	C241.611572,172.577469 243.225433,175.523697 245.020874,176.167709 
	C247.098312,176.912888 250.496002,176.256409 252.357132,174.893188 
	C257.684784,170.990845 253.813873,165.193436 255.188797,160.209778 
	C253.137177,160.209778 251.739059,160.209778 249.999207,160.209778 
	C249.999207,163.524231 250.099579,166.645813 249.967804,169.757553 
	C249.860168,172.299118 249.226242,174.359955 246.016479,170.903793 
M539.428833,177.000000 
	C541.215759,177.000000 543.002686,177.000000 544.766724,177.000000 
	C544.766724,175.452316 544.766724,174.373886 544.766724,172.941925 
	C542.113892,172.941925 539.684387,172.941925 537.254822,172.941925 
	C537.098572,172.381943 536.942261,171.821960 536.785950,171.261978 
	C538.114929,170.840881 539.492798,170.528412 540.755493,169.960052 
	C541.582397,169.587875 542.242676,168.845306 542.977600,168.268646 
	C542.254456,167.846237 541.571533,167.317291 540.799072,167.025269 
	C539.489685,166.530258 538.123779,166.184784 536.781616,165.776459 
	C536.925537,165.210709 537.069397,164.644974 537.213318,164.079224 
	C539.647949,164.079224 542.082581,164.079224 544.698120,164.079224 
	C544.698120,162.546585 544.698120,161.374191 544.698120,160.294205 
	C540.326782,160.294205 536.258911,160.294205 532.281738,160.294205 
	C532.281738,165.989380 532.281738,171.386581 532.281738,177.000000 
	C534.533936,177.000000 536.506165,177.000000 539.428833,177.000000 
M270.000000,169.370407 
	C271.233154,162.019501 268.116913,159.156326 257.311493,160.378387 
	C257.311493,165.887817 257.311493,171.400833 257.311493,176.895996 
	C267.632690,177.197342 269.645538,176.115646 270.000000,169.370407 
M439.000000,170.433228 
	C439.000000,172.553345 439.000000,174.673462 439.000000,176.768799 
	C440.550385,176.768799 441.624146,176.768799 443.065033,176.768799 
	C443.065033,174.460724 443.065033,172.374451 443.065033,169.958618 
	C444.643280,170.125702 445.819214,170.250198 447.172607,170.393478 
	C447.172607,172.743622 447.172607,174.692841 447.172607,176.625473 
	C448.906891,176.625473 450.406982,176.625473 451.829773,176.625473 
	C451.829773,170.972382 451.829773,165.693207 451.829773,160.330917 
	C450.129303,160.330917 448.621460,160.330917 446.914612,160.330917 
	C446.914612,162.618042 446.914612,164.575485 446.914612,166.953033 
	C445.513214,166.880615 444.334778,166.819717 443.162750,166.759155 
	C443.020416,164.304581 442.899384,162.216843 442.786987,160.277969 
	C441.345459,160.277969 440.290985,160.277969 439.000000,160.277969 
	C439.000000,163.520554 439.000000,166.492508 439.000000,170.433228 
M234.668594,160.055374 
	C234.317001,162.261917 233.965408,164.468445 233.565125,166.980621 
	C232.376526,166.867828 231.197525,166.755936 229.842285,166.627319 
	C229.842285,164.287140 229.842285,162.336014 229.842285,160.361542 
	C228.116287,160.361542 226.614410,160.361542 225.163803,160.361542 
	C225.163803,166.004318 225.163803,171.285889 225.163803,176.675903 
	C226.856140,176.675903 228.364609,176.675903 230.074249,176.675903 
	C230.074249,174.395996 230.074249,172.435928 230.074249,170.064087 
	C231.474854,170.125626 232.653976,170.177444 233.836914,170.229416 
	C233.979309,172.685959 234.100418,174.775177 234.213425,176.724640 
	C235.636230,176.724640 236.701920,176.724640 237.999313,176.724640 
	C237.999313,171.820480 238.123825,167.178268 237.890442,162.554123 
	C237.845734,161.667725 236.392960,160.852402 234.668594,160.055374 
M421.995850,162.410065 
	C421.312653,161.607361 420.679413,160.170059 419.937592,160.111664 
	C416.697906,159.856674 413.426697,160.001984 410.288330,160.001984 
	C410.288330,166.002380 410.288330,171.402390 410.288330,176.747467 
	C414.339508,176.747467 418.097321,176.747467 421.738525,176.747467 
	C421.738525,175.408203 421.738525,174.324493 421.738525,172.999603 
	C420.177185,172.999603 418.839172,173.171860 417.574493,172.941513 
	C416.669891,172.776718 415.863617,172.072189 415.013458,171.608490 
	C415.794769,171.072632 416.524200,170.426788 417.370026,170.027634 
	C418.527130,169.481598 419.772736,169.123123 420.980377,168.684235 
	C419.729492,168.122360 418.438507,167.633194 417.241669,166.973282 
	C416.433075,166.527451 415.757141,165.841125 415.021851,165.262375 
	C415.746002,164.842087 416.424194,164.225693 417.204010,164.042938 
	C418.754456,163.679596 420.360809,163.554947 421.995850,162.410065 
M298.666046,171.862900 
	C298.773590,170.054016 299.144623,168.214081 298.935852,166.442474 
	C298.447968,162.302795 295.304718,159.661957 291.538055,160.015198 
	C287.192627,160.422699 285.186646,162.666168 285.965759,167.166321 
	C286.189270,168.457428 286.225830,169.867264 285.959381,171.141357 
	C285.001648,175.720810 288.358887,176.494202 291.369873,176.880371 
	C294.510498,177.283173 297.767303,176.849777 298.666046,171.862900 
M349.943390,176.289688 
	C350.040192,174.539124 350.137024,172.788559 350.231812,171.074463 
	C357.226410,170.919144 359.273163,169.469711 358.998993,165.144348 
	C358.729370,160.890259 353.926880,159.172119 346.000519,160.615448 
	C346.000519,165.179398 346.162659,169.794052 345.941467,174.390274 
	C345.802460,177.278580 347.379242,177.168701 349.943390,176.289688 
M584.642639,172.999786 
	C583.771118,172.395523 582.899536,171.791260 582.028015,171.186996 
	C582.945068,170.791397 583.858887,170.388077 584.779907,170.001968 
	C586.176331,169.416580 587.577698,168.843155 588.976990,168.264664 
	C587.586853,167.843048 586.197937,167.417175 584.804749,167.005875 
	C584.651733,166.960709 584.428406,167.065628 584.315002,166.988037 
	C583.538086,166.456467 582.781738,165.894775 582.018799,165.342804 
	C582.718384,164.895782 583.385315,164.141144 584.123962,164.062943 
	C585.906128,163.874252 587.721741,164.001740 589.692627,164.001740 
	C589.692627,162.537628 589.692627,161.364822 589.692627,160.301041 
	C585.648499,160.301041 581.913513,160.301041 578.289185,160.301041 
	C578.289185,166.006653 578.289185,171.405457 578.289185,176.744568 
	C582.340576,176.744568 586.096497,176.744568 589.738098,176.744568 
	C591.069214,172.071442 587.872375,173.080109 584.642639,172.999786 
M389.976685,176.980103 
	C388.302124,171.584229 386.698456,166.162354 384.755615,160.864883 
	C384.652252,160.582993 380.616150,160.863647 380.230133,161.711090 
	C378.078247,166.435501 376.487671,171.415604 374.308319,177.397446 
	C376.680939,176.747009 378.688049,176.816650 379.411255,175.887222 
	C382.021881,172.532196 383.901642,173.103104 386.115814,176.211914 
	C386.582214,176.866714 388.122803,176.756409 389.976685,176.980103 
M478.353485,160.059219 
	C477.236267,160.742294 475.195312,161.371033 475.151428,162.117203 
	C474.861877,167.041885 475.001862,171.991806 475.001862,176.854874 
	C482.076416,177.761551 477.243530,171.850647 479.549744,170.269226 
	C480.961792,170.269226 482.367279,170.269226 483.853088,170.269226 
	C483.979065,172.620804 484.091003,174.710388 484.200745,176.759247 
	C485.581848,176.759247 486.650635,176.759247 487.783539,176.759247 
	C487.783539,171.098068 487.783539,165.675568 487.783539,160.169876 
	C481.092224,159.190720 485.541992,164.914352 483.548431,166.620621 
	C482.048004,166.620621 480.547577,166.620621 478.949463,166.620621 
	C478.949463,164.414902 478.949463,162.587036 478.353485,160.059219 
M282.975372,163.142303 
	C282.170166,159.843719 279.334412,159.821548 277.031860,160.146362 
	C274.178986,160.548843 271.058075,161.776123 271.109802,165.375641 
	C271.154602,168.491592 273.046783,170.342239 276.527405,170.263412 
	C277.571228,170.239777 278.634888,171.091599 279.689423,171.542358 
	C279.612366,171.972687 279.535309,172.403030 279.458221,172.833374 
	C277.776093,172.585510 276.033813,171.953918 274.430023,172.205490 
	C273.027863,172.425446 271.781525,173.638901 269.437225,175.019531 
	C278.947998,177.899109 282.244568,177.515259 283.586639,173.865707 
	C286.138428,166.926544 279.637634,167.430023 275.041046,164.995911 
	C278.429840,164.498703 280.537445,164.189484 282.975372,163.142303 
M500.441772,165.956757 
	C499.709045,164.217453 499.147583,162.363281 498.115601,160.824692 
	C497.876343,160.467987 495.341095,160.847305 495.035156,161.466965 
	C492.656738,166.284729 490.565521,171.244278 488.385468,176.159973 
	C488.796631,176.584488 489.207764,177.009003 489.618927,177.433502 
	C490.859802,176.704361 492.024902,175.607712 493.359436,175.332474 
	C495.345123,174.922958 497.514191,174.752609 499.485809,175.120453 
	C501.213654,175.442810 502.777039,176.646637 505.281097,177.893219 
	C503.447815,173.091995 502.204224,169.835144 500.441772,165.956757 
M428.001251,166.857697 
	C429.170044,166.233002 430.331085,165.117493 431.509369,165.098984 
	C433.261200,165.071472 435.025208,165.819580 437.063751,166.304062 
	C436.880249,160.903763 433.076660,160.096619 430.183014,160.261642 
	C427.318695,160.425018 423.523132,161.323898 423.947693,166.114120 
	C424.312225,170.227402 422.700653,175.120300 428.271149,176.928085 
	C432.133850,178.181671 435.179901,176.016083 437.185120,170.503586 
	C434.284851,171.318085 431.921967,171.981659 428.746948,172.873306 
	C428.516205,171.270844 428.258118,169.478806 428.001251,166.857697 
M464.903137,172.349396 
	C464.602325,171.463531 464.048615,170.578308 464.046326,169.691650 
	C464.038177,166.554947 463.025909,162.072235 468.836548,165.830490 
	C469.810883,166.460693 471.542999,165.919373 473.017365,165.919373 
	C472.217102,160.635147 468.473511,159.740784 464.996521,160.197586 
	C461.209686,160.695084 459.260681,163.562332 459.961304,167.743317 
	C460.204529,169.194916 459.834259,170.746231 460.051849,172.206146 
	C460.230286,173.403488 460.520966,174.994812 461.354553,175.615326 
	C465.844818,178.957825 471.005096,176.942474 473.044769,170.432816 
	C470.167389,171.386719 467.825287,172.163177 464.903137,172.349396 
M361.040283,160.851578 
	C361.040283,166.139755 361.040283,171.427933 361.040283,177.035934 
	C362.622406,176.874374 363.804932,176.753632 365.164429,176.614822 
	C365.164429,174.271576 365.164429,172.317795 365.164429,170.361313 
	C366.911407,170.361313 368.428741,170.361313 369.366730,170.361313 
	C370.058197,172.938049 370.621124,175.035828 371.184052,177.133591 
	C371.695892,177.007294 372.207703,176.880997 372.719543,176.754684 
	C372.719543,171.193176 372.719543,165.631668 372.719543,160.070160 
	C372.146912,159.935043 371.574310,159.799927 371.001678,159.664795 
	C370.484741,162.050461 369.967804,164.436111 369.408447,167.017654 
	C368.020599,166.949814 366.612030,166.880951 366.343658,166.867828 
	C363.387695,164.679474 367.919678,159.247086 361.040283,160.851578 
M471.000000,303.656738 
	C471.001251,306.487854 470.711487,309.364990 471.148529,312.127136 
	C471.320831,313.215729 473.012817,314.570679 474.207947,314.803833 
	C474.945831,314.947784 476.794067,313.258789 476.863892,312.299500 
	C477.165405,308.158020 477.164246,303.970184 476.872284,299.827454 
	C476.802032,298.830627 475.061523,297.082062 474.328491,297.197601 
	C473.118622,297.388367 471.875061,298.656097 471.092224,299.780731 
	C470.623016,300.454865 471.002167,301.719452 471.000000,303.656738 
M519.000000,169.480011 
	C519.000000,171.901794 519.000000,174.323593 519.000000,176.785645 
	C523.257874,176.785645 526.992920,176.785645 531.033386,176.785645 
	C530.878052,175.362503 530.749756,174.186874 530.603577,172.847321 
	C527.942444,172.847321 525.670898,172.847321 523.046448,172.847321 
	C523.046448,168.584000 523.046448,164.510529 523.046448,160.029465 
	C521.503723,160.108276 520.339539,160.167755 519.000000,160.236206 
	C519.000000,163.248077 519.000000,165.878967 519.000000,169.480011 
M404.039490,164.867386 
	C405.490753,163.551712 409.824371,164.343338 407.444855,160.235291 
	C403.673523,160.235291 399.915680,160.235291 396.157867,160.235291 
	C395.898895,160.625122 395.639893,161.014954 395.380920,161.404785 
	C396.836731,162.658920 398.292511,163.913071 400.179352,165.538528 
	C400.179352,168.795959 400.179352,172.743393 400.179352,177.000793 
	C401.606079,176.865616 402.776855,176.754684 404.002563,176.638550 
	C404.002563,172.764877 404.002563,169.285843 404.039490,164.867386 
M507.667664,176.995575 
	C510.621124,176.995575 513.574585,176.995575 516.967285,176.995575 
	C516.893005,175.521667 516.833984,174.350754 516.772522,173.131348 
	C514.348877,173.017654 512.283264,172.920776 509.890808,172.808548 
	C509.890808,168.379257 509.890808,164.303314 509.890808,160.214203 
	C508.457214,160.214203 507.393585,160.214203 506.026154,160.214203 
	C506.026154,165.516876 506.010376,170.617447 506.055969,175.717514 
	C506.059631,176.127121 506.485962,176.532974 507.667664,176.995575 
M101.141350,282.965424 
	C101.915321,280.812805 102.689285,278.660217 103.678284,275.909546 
	C100.633728,276.042908 98.916878,276.118103 96.513168,276.223389 
	C98.359512,278.633972 94.043724,283.283905 101.141350,282.965424 
z"/>
<path fill="#FFFFFF" opacity="1.000000" stroke="none" 
	d="
M171.262177,179.304504 
	C175.169022,173.341751 178.505264,167.401382 182.710312,162.157715 
	C184.214905,160.281509 187.819183,160.089081 190.930374,158.959167 
	C188.526932,155.164322 185.884323,150.859787 183.111435,146.640884 
	C177.181931,137.619278 171.195694,128.634842 165.212708,119.648491 
	C159.232635,110.666550 153.186844,101.728073 147.248489,92.718727 
	C143.088348,86.407181 139.141418,79.954643 134.956650,73.659882 
	C125.682434,59.709549 116.306976,45.826565 106.995682,31.900818 
	C102.068855,24.532387 97.052628,17.214172 92.502594,9.618215 
	C92.049271,8.861425 94.565979,6.325567 95.921539,4.288948 
	C186.637650,141.583420 276.790314,278.025146 367.084930,414.681702 
	C365.496582,415.814575 364.048065,416.847687 362.327087,418.075134 
	C356.177124,408.588684 350.141418,399.137695 343.961639,389.781830 
	C336.409882,378.348938 328.689941,367.027130 321.129150,355.600128 
	C312.091888,341.941620 303.193787,328.190979 294.147278,314.538666 
	C284.868195,300.535309 275.456940,286.619568 266.153534,272.632233 
	C260.712372,264.451660 255.436264,256.160187 249.900330,248.045227 
	C249.172134,246.977753 247.364639,246.156586 246.014923,246.091248 
	C241.197830,245.858078 236.362595,246.000046 231.633438,246.000046 
	C218.205780,224.627731 204.872360,203.405411 191.567932,182.229233 
	C189.216171,186.167679 187.015533,190.071091 184.608856,193.843018 
	C177.114090,205.589279 169.526733,217.276428 162.006790,229.006699 
	C159.479492,232.949005 157.180313,237.043747 154.530304,240.899353 
	C152.201019,244.288330 149.622314,246.893387 144.589188,246.160568 
	C139.562027,245.428635 134.345108,246.000000 127.673439,246.000000 
	C142.537888,223.238297 156.786194,201.420090 171.262177,179.304504 
z"/>
<path fill="#FFFFFF" opacity="1.000000" stroke="none" 
	d="
M12.000000,181.000153 
	C12.000000,173.857422 12.000000,167.214645 12.000000,160.286697 
	C18.617323,160.286697 25.022757,160.286697 31.829258,160.286697 
	C31.829258,170.620575 31.829258,181.029678 31.829258,191.716797 
	C52.958729,191.716797 73.693474,191.716797 94.827362,191.716797 
	C94.827362,181.381302 94.827362,170.972183 94.827362,160.284119 
	C101.623039,160.284119 108.028183,160.284119 114.718277,160.284119 
	C114.718277,188.627258 114.718277,217.026962 114.718277,245.713776 
	C108.380707,245.713776 101.976570,245.713776 95.170311,245.713776 
	C95.170311,233.711609 95.170311,221.636642 95.170311,209.283249 
	C74.041359,209.283249 53.306614,209.283249 32.173256,209.283249 
	C32.173256,221.285522 32.173256,233.360458 32.173256,245.715302 
	C25.378214,245.715302 18.973007,245.715302 12.000000,245.715302 
	C12.000000,224.350861 12.000000,202.925491 12.000000,181.000153 
z"/>
<path fill="#FFFFFF" opacity="1.000000" stroke="none" 
	d="
M547.999939,241.000000 
	C534.192078,241.000000 520.884216,241.000000 507.180023,241.000000 
	C507.180023,253.278595 507.180023,265.353546 507.180023,277.711914 
	C500.385712,277.711914 493.980133,277.711914 487.000000,277.711914 
	C487.000000,263.524902 487.000000,249.264130 487.000000,235.003372 
	C487.000000,220.862030 487.000000,206.720688 487.000000,192.290146 
	C493.610931,192.290146 500.015350,192.290146 506.822296,192.290146 
	C506.822296,202.946793 506.822296,213.689133 506.822296,224.713272 
	C527.951599,224.713272 548.686401,224.713272 569.820251,224.713272 
	C569.820251,214.055328 569.820251,203.312851 569.820251,192.287750 
	C576.615051,192.287750 583.020569,192.287750 590.000000,192.287750 
	C590.000000,206.475815 590.000000,220.736679 590.000000,234.997528 
	C590.000000,249.138794 590.000000,263.280060 590.000000,277.710175 
	C583.389587,277.710175 576.983826,277.710175 570.177490,277.710175 
	C570.177490,265.718170 570.177490,253.643936 570.177490,241.000000 
	C562.696533,241.000000 555.598206,241.000000 547.999939,241.000000 
z"/>
<path fill="#FFFFFF" opacity="1.000000" stroke="none" 
	d="
M475.000000,266.095459 
	C475.000000,270.216949 475.000000,273.851288 475.000000,277.817566 
	C473.469421,277.885986 472.194092,277.992096 470.918671,277.992676 
	C448.771942,278.002808 426.622314,278.199982 404.480133,277.883362 
	C397.446869,277.782776 389.918335,277.313995 384.590088,271.846497 
	C382.019684,269.208862 379.351685,265.280090 379.247009,261.858856 
	C378.712433,244.390961 378.945801,226.897644 379.024536,209.413727 
	C379.060059,201.528473 386.693115,193.311905 394.738770,193.073975 
	C413.790405,192.510574 432.852966,192.297363 451.912201,192.017944 
	C459.391541,191.908310 466.873810,192.000000 474.677063,192.000000 
	C474.677063,197.207184 474.677063,202.278259 474.677063,207.775330 
	C473.455261,207.842682 472.028656,207.988876 470.601929,207.989868 
	C449.620819,208.004593 428.639679,207.996140 407.658569,208.002136 
	C400.634064,208.004150 399.000427,209.638260 399.000122,216.603561 
	C398.999634,229.092316 399.162567,241.584229 398.921722,254.068329 
	C398.822357,259.219147 399.791565,261.155243 406.162750,261.086395 
	C427.307922,260.857849 448.457092,261.000000 469.604736,261.000000 
	C471.241333,261.000000 472.877960,261.000000 475.000000,261.000000 
	C475.000000,262.727936 475.000000,264.168091 475.000000,266.095459 
z"/>
<path fill="#FFFFFF" opacity="1.000000" stroke="none" 
	d="
M306.000000,265.985962 
	C306.000000,246.516144 306.000000,227.543259 306.000000,208.173569 
	C291.713989,208.173569 277.639771,208.173569 263.284821,208.173569 
	C263.284821,202.711655 263.284821,197.639832 263.284821,192.281647 
	C298.294525,192.281647 333.360626,192.281647 368.713348,192.281647 
	C368.713348,197.284714 368.713348,202.356552 368.713348,207.830292 
	C355.044434,207.830292 341.303101,207.830292 327.170776,207.830292 
	C327.170776,231.291931 327.170776,254.362595 327.170776,277.715424 
	C320.045197,277.715424 313.306030,277.715424 306.000000,277.715424 
	C306.000000,274.024536 306.000000,270.253723 306.000000,265.985962 
z"/>
<path fill="#F6C744" opacity="1.000000" stroke="none" 
	d="
M458.996918,128.934692 
	C458.613556,128.529373 457.967499,128.392471 457.892334,128.542175 
	C456.876801,130.565247 456.288849,132.920898 454.881805,134.594635 
	C453.607544,136.110428 451.547638,137.491470 449.665344,137.763275 
	C448.621338,137.914032 446.965302,135.845856 446.062347,134.465622 
	C444.806335,132.545746 443.997864,130.333084 442.000000,128.553543 
	C442.000000,131.299500 442.000000,134.045441 442.000000,136.791397 
	C442.000000,139.413284 442.000000,142.035172 442.000000,144.818726 
	C439.571960,144.818726 437.619293,144.818726 435.332550,144.818726 
	C435.332550,133.797470 435.332550,122.727020 435.332550,111.313263 
	C438.966522,110.713295 442.181427,110.013924 443.906433,115.178291 
	C445.280731,119.292603 448.033722,122.946388 450.497223,127.385849 
	C452.509979,123.539711 454.739838,120.333321 455.915497,116.778282 
	C457.565582,111.788467 460.351288,109.769287 465.731140,111.399529 
	C465.731140,122.286041 465.731140,133.365753 465.731140,144.723480 
	C463.631409,144.723480 461.570648,144.723480 458.999603,144.723480 
	C458.999603,139.567200 458.999603,134.451782 458.996918,128.934692 
z"/>
<path fill="#FFFFFF" opacity="1.000000" stroke="none" 
	d="
M148.395218,115.871490 
	C148.474442,123.230385 148.849243,130.376373 147.711487,137.272812 
	C147.245590,140.096893 143.987503,143.565720 141.176849,144.696899 
	C131.525894,148.581055 123.003845,142.162186 123.000259,131.678391 
	C122.998726,127.181358 122.908745,122.682098 123.018837,118.187759 
	C123.255478,108.527512 132.078247,103.045204 141.201172,106.664940 
	C145.363235,108.316338 148.251450,110.684464 148.395218,115.871490 
M133.506027,136.949127 
	C137.893387,138.425400 139.927673,137.117355 139.988480,132.690643 
	C140.043076,128.716202 140.315445,124.706467 139.892639,120.776772 
	C139.594894,118.009537 138.293854,115.350235 137.440781,112.642746 
	C136.688599,112.566849 135.936432,112.490959 135.184265,112.415062 
	C133.833389,114.491943 131.352097,116.565819 131.346573,118.646263 
	C131.330917,124.555275 132.326187,130.466965 133.506027,136.949127 
z"/>
<path fill="#FFFFFF" opacity="1.000000" stroke="none" 
	d="
M248.354797,115.000839 
	C247.093018,115.944420 246.287796,116.887260 244.624741,118.834595 
	C254.906036,116.619530 260.142212,119.596878 260.996826,126.837997 
	C262.273987,137.659454 259.139191,144.342560 252.655121,145.025528 
	C242.353607,146.110550 236.134003,141.346268 237.118164,134.261993 
	C240.585251,134.236374 244.377533,132.392410 246.935608,136.858536 
	C247.200592,137.321167 250.372162,137.000259 251.157349,136.118668 
	C253.528214,133.456726 252.701828,130.111084 251.446106,127.250092 
	C251.111511,126.487701 248.590515,126.263878 247.180313,126.482597 
	C244.279816,126.932457 241.451538,127.848038 238.198792,128.671936 
	C238.198792,120.907738 238.198792,114.164757 238.198792,107.210655 
	C245.441055,107.210655 252.511124,107.210655 259.791077,107.210655 
	C259.791077,109.762665 259.791077,112.165527 259.791077,115.000107 
	C256.051544,115.000107 252.431473,115.000107 248.354797,115.000839 
z"/>
<path fill="#FFFFFF" opacity="1.000000" stroke="none" 
	d="
M221.025391,136.972900 
	C224.411240,136.996841 227.393753,136.996841 230.687286,136.996841 
	C230.687286,139.535400 230.687286,141.949051 230.687286,144.684570 
	C223.015137,144.684570 215.135025,144.684570 207.270218,144.684570 
	C205.623016,139.398788 209.652008,136.652756 212.226944,133.287903 
	C215.672714,128.785095 219.213303,124.354065 222.615372,119.818863 
	C224.679199,117.067635 223.008331,114.747002 220.801682,113.592468 
	C219.852921,113.096062 217.744736,114.923714 216.119476,115.588310 
	C213.304520,116.739395 210.455399,117.806999 207.332413,118.284569 
	C208.311447,112.186806 210.414673,107.555534 216.413376,106.247154 
	C221.878204,105.055214 226.524826,106.969345 230.226059,110.843102 
	C233.278885,114.038223 232.281189,122.183678 229.036789,126.024422 
	C226.073608,129.532242 223.414917,133.297272 221.025391,136.972900 
z"/>
<path fill="#FFFFFF" opacity="1.000000" stroke="none" 
	d="
M107.314575,123.224625 
	C111.691643,118.421936 111.179588,115.604614 105.605110,112.954239 
	C102.669975,115.406807 100.541191,120.008179 95.188614,117.554840 
	C94.302002,112.930809 95.928673,109.498619 100.211655,107.312149 
	C104.769936,104.985146 111.956261,105.441864 115.278206,108.937737 
	C118.198036,112.010445 120.523064,115.913834 118.142235,120.302345 
	C115.050850,126.000618 111.480095,131.438828 108.116508,136.987595 
	C110.843964,136.987595 114.228607,136.987595 117.796936,136.987595 
	C117.796936,139.763885 117.796936,142.166626 117.796936,144.785889 
	C110.254654,144.785889 102.850418,144.785889 95.066208,144.785889 
	C95.171967,140.930389 94.380905,137.562424 98.502617,134.494995 
	C102.090958,131.824524 104.254585,127.239662 107.314575,123.224625 
z"/>
<path fill="#F6C744" opacity="1.000000" stroke="none" 
	d="
M536.000000,138.889191 
	C536.000000,129.447662 536.000000,120.490273 536.000000,111.269135 
	C538.047852,111.269135 539.775391,111.269135 541.829102,111.269135 
	C541.829102,114.264313 541.829102,117.203201 541.829102,120.559273 
	C542.542542,120.413551 542.861633,120.307610 543.185913,120.288086 
	C552.360107,119.736008 557.575562,118.014328 557.024780,132.103882 
	C556.863647,136.227402 557.000000,140.362549 557.000000,144.741287 
	C554.600952,144.741287 552.543213,144.741287 549.999390,144.741287 
	C549.999390,139.702942 550.188416,134.743530 549.873657,129.816269 
	C549.789307,128.496353 548.115967,126.204170 547.264221,126.245750 
	C545.797546,126.317360 543.359436,127.686668 543.157959,128.832870 
	C542.256226,133.962631 542.000427,139.205933 541.482910,144.712311 
	C539.982910,144.712311 538.254639,144.712311 536.000000,144.712311 
	C536.000000,142.934891 536.000000,141.154114 536.000000,138.889191 
z"/>
<path fill="#FFFFFF" opacity="1.000000" stroke="none" 
	d="
M436.047485,306.879578 
	C435.998047,309.105225 436.292389,311.011475 435.857788,312.733765 
	C435.626038,313.652222 434.071411,314.914856 433.227417,314.834198 
	C432.099365,314.726379 430.217621,313.524323 430.160522,312.689484 
	C429.854675,308.219086 429.746765,303.694794 430.111420,299.233307 
	C430.348511,296.332397 433.941956,296.031189 437.167358,298.747345 
	C440.967194,301.947296 444.574646,305.375671 448.418030,308.842621 
	C451.924744,305.739838 455.311279,302.432007 459.048309,299.584076 
	C460.630493,298.378357 463.047729,297.470642 464.891968,297.742126 
	C465.818176,297.878418 466.693573,300.912415 466.911407,302.718079 
	C467.247711,305.505402 467.283844,308.404755 466.879211,311.173523 
	C466.679016,312.543457 465.210266,313.727966 464.315430,314.996338 
	C462.882965,313.903778 461.051392,313.063202 460.149719,311.635406 
	C459.480408,310.575500 460.018005,308.753418 460.018005,306.300140 
	C457.813751,308.174255 456.252411,309.505463 454.687073,310.831909 
	C448.091034,316.421234 445.425262,316.105225 439.994263,309.392731 
	C439.004974,308.170013 437.405762,307.440704 436.047485,306.879578 
z"/>
<path fill="#F6C744" opacity="1.000000" stroke="none" 
	d="
M479.228088,120.000000 
	C481.506561,120.002419 483.387482,119.737091 485.158997,120.064178 
	C488.618103,120.702843 491.229553,122.152763 491.058655,126.497292 
	C490.823944,132.463608 490.999908,138.446075 490.999908,145.506989 
	C485.089203,144.816711 479.409332,144.659363 473.996704,143.375275 
	C468.848907,142.154022 470.868805,137.230743 471.350403,134.167618 
	C471.610565,132.512909 474.989380,130.837128 477.257477,130.153122 
	C479.532227,129.467087 482.175354,130.002365 484.821472,130.002365 
	C484.658325,125.057358 481.273682,126.142570 478.547455,125.995102 
	C476.015747,125.858147 473.492737,125.560997 470.965881,125.334389 
	C470.854248,124.481628 470.742615,123.628876 470.630981,122.776123 
	C473.347687,121.850746 476.064392,120.925369 479.228088,120.000000 
M478.123322,135.492661 
	C478.801025,136.865768 479.478729,138.238892 480.156433,139.612015 
	C481.753876,138.408386 483.351318,137.204742 484.948761,136.001114 
	C484.702332,135.688446 484.455872,135.375763 484.209442,135.063095 
	C482.416840,135.063095 480.624268,135.063095 478.123322,135.492661 
z"/>
<path fill="#FFFFFF" opacity="1.000000" stroke="none" 
	d="
M402.390747,298.013245 
	C408.954590,298.001068 415.078064,298.033569 421.200989,297.987579 
	C424.832184,297.960297 425.986115,299.864868 426.042328,303.265564 
	C426.206787,313.212952 424.544067,314.973297 414.406372,314.999146 
	C412.249786,315.004639 409.957001,315.467896 407.968140,314.890106 
	C404.889282,313.995758 401.055298,313.139313 399.299988,310.892822 
	C397.060425,308.026611 399.427643,300.154968 402.390747,298.013245 
M420.000000,305.528748 
	C420.198181,303.388489 420.173767,301.713104 417.084106,301.933228 
	C413.187531,302.210846 409.256134,302.000214 405.176971,302.000214 
	C405.176971,304.806671 405.176971,307.193665 405.176971,309.999817 
	C409.256195,309.999817 413.187744,309.789093 417.084503,310.066833 
	C420.174500,310.287048 420.197845,308.611237 420.000000,305.528748 
z"/>
<path fill="#F6C744" opacity="1.000000" stroke="none" 
	d="
M590.000000,123.014923 
	C590.000000,130.466339 590.000000,137.421082 590.000000,144.686493 
	C587.371765,144.686493 584.979614,144.686493 582.028198,144.686493 
	C582.028198,136.587860 582.028198,128.412125 582.028198,119.788208 
	C580.070190,120.545784 578.745483,121.058342 577.406677,121.576355 
	C575.031677,113.483437 579.684204,109.723709 590.000000,111.328598 
	C590.000000,114.989029 590.000000,118.753647 590.000000,123.014923 
z"/>
<path fill="#FFFFFF" opacity="1.000000" stroke="none" 
	d="
M361.318787,304.122314 
	C364.731140,308.005280 361.738953,307.940308 359.257477,307.977234 
	C354.194611,308.052612 349.129822,307.999786 344.065826,307.999786 
	C344.015564,308.422333 343.965302,308.844849 343.915009,309.267395 
	C344.817078,309.511383 345.715881,309.951416 346.621735,309.966278 
	C351.104797,310.039948 355.599091,309.846802 360.066833,310.118896 
	C361.087158,310.181030 362.018005,311.712280 362.990021,312.567383 
	C362.139069,313.375214 361.271576,314.896484 360.439819,314.877197 
	C354.228485,314.733185 347.944824,314.775299 341.840820,313.788239 
	C336.133759,312.865326 336.758667,307.851105 337.023682,303.583496 
	C337.252441,299.899292 339.374176,298.431885 343.034027,297.883118 
	C347.358673,297.234741 351.557892,295.693756 355.988647,300.847473 
	C351.402344,301.506866 347.689941,302.040649 343.977539,302.574402 
	C344.000092,303.054810 344.022644,303.535217 344.045197,304.015625 
	C349.659332,304.015625 355.273468,304.015625 361.318787,304.122314 
z"/>
<path fill="#FFFFFF" opacity="1.000000" stroke="none" 
	d="
M389.583435,314.855530 
	C384.147552,311.408691 379.097046,308.089142 372.999969,304.081696 
	C372.999969,306.898315 372.973877,308.751984 373.006683,310.604614 
	C373.046539,312.851898 373.173676,315.090302 369.888550,315.006104 
	C366.543457,314.920288 367.011841,312.511688 367.003113,310.387177 
	C366.990875,307.397003 366.833252,304.393494 367.070374,301.422211 
	C367.188843,299.937469 367.780792,297.502502 368.625793,297.281189 
	C370.122009,296.889282 372.202148,297.476410 373.637573,298.328339 
	C378.703156,301.334930 383.598938,304.627563 389.001007,308.095367 
	C389.001007,305.064758 388.760925,302.590271 389.105347,300.200043 
	C389.270142,299.056763 390.543121,298.073181 391.314178,297.017273 
	C392.542206,297.995941 394.709045,298.871887 394.829407,299.971802 
	C395.260590,303.911530 395.401855,307.992950 394.767975,311.876343 
	C394.561829,313.139282 391.645508,313.959839 389.583435,314.855530 
z"/>
<path fill="#F6C744" opacity="1.000000" stroke="none" 
	d="
M516.742554,142.241592 
	C512.555359,136.099792 513.598328,129.865524 515.228638,123.663002 
	C515.480286,122.705673 516.656982,121.425644 517.548584,121.298897 
	C521.723877,120.705383 525.966919,120.102943 530.146057,120.308784 
	C531.448242,120.372925 532.625977,122.962746 533.860718,124.396362 
	C531.913574,125.096840 529.835144,126.627777 528.043518,126.344536 
	C522.308350,125.437843 521.111694,126.068253 520.999939,131.544540 
	C520.840210,139.378723 522.822754,140.592865 530.287476,136.944550 
	C531.500427,138.105133 532.786621,139.335800 534.047119,140.541901 
	C530.325989,146.104614 524.301758,146.748703 516.742554,142.241592 
z"/>
<path fill="#FFFFFF" opacity="1.000000" stroke="none" 
	d="
M520.932739,310.000000 
	C523.603271,310.000000 525.791687,310.000000 527.980164,310.000000 
	C527.990601,309.440369 528.001038,308.880737 528.011414,308.321075 
	C525.561035,308.214050 523.103455,308.189331 520.662048,307.978149 
	C517.921326,307.741058 515.142212,307.553619 512.485474,306.909058 
	C511.201324,306.597565 509.202362,305.290497 509.201385,304.432343 
	C509.199219,302.502319 509.777740,299.313202 510.948364,298.881134 
	C514.190674,297.684448 517.848267,297.437317 521.362305,297.282501 
	C522.190186,297.246033 523.099243,299.051544 523.970947,300.009644 
	C522.974365,300.672668 522.046997,301.715088 520.965515,301.912415 
	C519.210999,302.232574 517.355408,301.998718 515.462646,303.167084 
	C519.019714,303.444702 522.587646,303.627502 526.129761,304.034637 
	C528.348145,304.289642 530.672913,304.558441 532.666809,305.452515 
	C533.750244,305.938324 534.823669,307.738983 534.835938,308.957306 
	C534.848145,310.175110 533.829773,311.955444 532.749023,312.542267 
	C525.892822,316.265045 518.355225,314.785614 511.046753,314.867432 
	C510.376221,314.874969 509.008972,313.179565 509.162201,312.581482 
	C509.415344,311.593109 510.577789,310.221130 511.474243,310.126984 
	C514.438171,309.815674 517.454468,310.003662 520.932739,310.000000 
z"/>
<path fill="#FFFFFF" opacity="1.000000" stroke="none" 
	d="
M47.529861,292.990662 
	C45.482716,292.212036 43.888832,291.441681 42.000000,290.528778 
	C42.000000,289.043671 41.774677,287.356720 42.049965,285.755920 
	C42.527210,282.980652 42.647369,278.392395 44.099850,277.873291 
	C48.050499,276.461334 52.616203,276.680084 56.947983,276.521729 
	C57.600151,276.497864 58.305084,277.917114 58.985611,278.668823 
	C58.099991,279.443634 57.277142,280.779083 56.316807,280.886597 
	C53.596500,281.191162 50.819939,280.993256 48.065533,280.993256 
	C48.025841,281.662170 47.986145,282.331085 47.946449,283.000000 
	C51.157364,283.000000 54.368282,283.000000 57.579197,283.000000 
	C60.890877,283.000000 64.202560,283.000000 67.514244,283.000000 
	C67.787186,283.442261 68.060127,283.884552 68.333069,284.326813 
	C67.043541,285.217682 65.792892,286.802429 64.457626,286.877258 
	C59.158672,287.174255 53.833282,286.999420 48.517693,286.999420 
	C48.476795,287.467529 48.435902,287.935638 48.395008,288.403748 
	C54.976913,288.797211 61.558823,289.190704 68.140732,289.584167 
	C68.120399,290.563995 68.100067,291.543793 68.079735,292.523590 
	C61.464077,293.538269 54.673576,292.753845 47.529861,292.990662 
z"/>
<path fill="#FFFFFF" opacity="1.000000" stroke="none" 
	d="
M120.728172,282.001038 
	C122.924561,282.334717 124.860306,282.301422 126.356667,283.095795 
	C128.104202,284.023499 130.221802,285.405212 130.816605,287.075134 
	C131.645111,289.401154 131.321518,292.043762 127.465340,292.120209 
	C120.733238,292.253723 114.008331,292.750427 107.276230,292.883911 
	C106.552490,292.898254 105.801079,291.516388 105.062508,290.782196 
	C105.946304,290.190399 106.809059,289.128082 107.717484,289.087463 
	C111.873390,288.901672 116.043213,289.056854 120.205582,288.970856 
	C121.691765,288.940186 123.171043,288.574951 124.552956,287.482086 
	C119.327408,286.987946 114.035660,286.824371 108.916473,285.799164 
	C107.370766,285.489624 105.439346,282.860535 105.300583,281.161896 
	C105.196198,279.884186 107.439880,277.696381 109.053551,277.157715 
	C111.767601,276.251801 114.820427,276.051971 117.712173,276.143250 
	C118.828659,276.178467 119.894501,277.817932 120.983421,278.726501 
	C119.909256,279.484039 118.923790,280.640198 117.739685,280.903687 
	C116.053123,281.278992 114.220772,280.999115 112.452187,282.000122 
	C115.059189,282.000122 117.666191,282.000122 120.728172,282.001038 
z"/>
<path fill="#FFFFFF" opacity="1.000000" stroke="none" 
	d="
M192.116821,290.000000 
	C189.062454,290.668884 186.495087,291.470734 183.869873,291.965729 
	C181.666199,292.381226 179.395081,292.438995 177.153824,292.655151 
	C176.692245,291.736572 176.230667,290.818024 175.769089,289.899445 
	C180.451691,285.829803 185.008362,281.597931 189.901688,277.799744 
	C191.194260,276.796509 194.322342,276.209229 195.244873,277.006927 
	C199.857483,280.995453 204.053635,285.472748 208.291824,289.878662 
	C208.864716,290.474213 208.847839,291.637085 209.231430,292.984802 
	C203.398697,291.939331 197.988739,290.969666 192.116821,290.000000 
z"/>
<path fill="#FFFFFF" opacity="1.000000" stroke="none" 
	d="
M318.127045,176.998672 
	C313.310272,175.932724 316.952545,173.382462 317.225952,172.126785 
	C317.923798,168.921692 319.471710,165.839111 321.065765,162.918304 
	C321.852661,161.476486 323.493164,160.500549 324.836395,159.229660 
	C327.368866,165.095947 329.417999,169.842529 332.036591,175.908264 
	C332.036591,169.790497 332.036591,165.078110 332.036591,160.191284 
	C333.776978,160.191284 335.178131,160.191284 336.960938,160.191284 
	C336.960938,164.396835 336.960938,168.489029 336.960938,172.943176 
	C339.742157,172.943176 342.155121,172.943176 344.778320,172.943176 
	C344.778320,174.395752 344.778320,175.472687 344.778320,176.999252 
	C339.649139,176.999252 334.532104,177.007156 329.415161,176.989441 
	C328.760681,176.987183 327.709442,177.082108 327.512390,176.742783 
	C324.838531,172.137543 322.434753,172.813354 320.006836,176.935577 
	C319.873138,177.162598 319.056732,176.987503 318.127045,176.998672 
z"/>
<path fill="#FFFFFF" opacity="1.000000" stroke="none" 
	d="
M481.000000,306.007874 
	C479.262939,298.209991 484.926575,297.986938 489.404480,297.367920 
	C493.811279,296.758728 498.359619,296.901428 502.821075,297.153229 
	C503.920502,297.215240 504.923676,298.982452 505.971069,299.965759 
	C504.824280,300.643616 503.709045,301.832947 502.524872,301.906097 
	C498.544617,302.151947 494.535950,302.107513 490.545563,301.965424 
	C487.541748,301.858429 486.945709,303.402435 486.950104,305.988586 
	C486.954437,308.553192 487.499573,310.140381 490.522522,310.034058 
	C494.513031,309.893677 498.527130,309.807800 502.498718,310.115723 
	C503.717529,310.210236 504.830139,311.673584 505.991394,312.510132 
	C504.944885,313.334686 503.848663,314.924042 502.859894,314.859833 
	C496.378357,314.438690 489.892639,313.851440 483.464020,312.929962 
	C479.336670,312.338379 481.598480,308.721008 481.000000,306.007874 
z"/>
<path fill="#FFFFFF" opacity="1.000000" stroke="none" 
	d="
M251.675705,290.275330 
	C249.388580,289.401031 247.435425,288.763763 245.229385,288.043976 
	C245.077026,289.683807 244.933380,291.229767 244.780899,292.870758 
	C242.882355,292.870758 241.245728,292.870758 239.000000,292.870758 
	C239.000000,289.013275 238.931656,285.090881 239.027298,281.172485 
	C239.079163,279.047302 238.117294,275.812347 241.793961,276.189331 
	C243.339981,276.347839 244.676254,278.551849 247.182098,280.782043 
	C249.877335,279.845764 254.124771,278.189240 258.492950,276.962799 
	C259.810791,276.592773 261.463806,277.416565 262.963287,277.693542 
	C261.915253,278.805481 261.062073,280.306213 259.778992,280.949066 
	C257.036438,282.323212 254.071426,283.253296 250.468613,284.647339 
	C255.552521,286.645081 259.904724,288.355316 265.035187,290.371338 
	C259.850586,295.533203 255.975418,291.201630 251.675705,290.275330 
z"/>
<path fill="#FFFFFF" opacity="1.000000" stroke="none" 
	d="
M321.813293,315.000000 
	C317.379486,314.372498 313.424194,313.566589 309.428314,313.177979 
	C306.599792,312.902893 305.797760,311.553802 305.970642,308.968872 
	C306.114563,306.816803 305.881897,304.638153 306.051300,302.489807 
	C306.134064,301.440125 306.590576,299.646790 307.154327,299.530548 
	C311.653137,298.602875 316.212189,297.946075 320.776459,297.406372 
	C321.077942,297.370728 322.067505,299.138489 321.858795,299.783112 
	C321.574524,300.660950 320.509949,301.780609 319.665070,301.887360 
	C317.374329,302.176727 315.023041,301.986572 312.347900,301.986572 
	C312.347900,304.456482 312.347900,306.866425 312.347900,309.641541 
	C316.918152,309.641541 321.786041,309.641541 327.004395,309.641541 
	C327.004395,308.354156 326.691986,306.958282 327.097748,305.817993 
	C327.458557,304.803955 328.476593,303.700775 329.463867,303.332947 
	C330.280640,303.028687 331.845276,303.407104 332.436096,304.062347 
	C334.446350,306.291870 332.715607,312.724030 329.861694,313.571228 
	C327.407532,314.299805 324.809113,314.542480 321.813293,315.000000 
z"/>
<path fill="#FFFFFF" opacity="1.000000" stroke="none" 
	d="
M152.612823,292.622223 
	C150.663116,292.944916 149.043274,292.944916 147.000046,292.944916 
	C147.000046,288.587280 147.021805,284.475616 146.991394,280.364319 
	C146.974747,278.114166 146.932022,275.498383 150.091827,276.185089 
	C151.291138,276.445709 152.162735,278.697815 152.944412,280.169373 
	C153.278351,280.798004 153.000229,281.751770 153.000229,282.778687 
	C158.298706,282.778687 163.386215,282.778687 168.462769,282.778687 
	C168.636856,282.501007 168.871323,282.268341 168.940811,281.993927 
	C169.506256,279.761261 167.504456,276.034851 172.001358,276.058746 
	C176.435196,276.082306 174.807632,279.692871 174.945938,281.994507 
	C175.153641,285.451141 175.000000,288.929535 175.000000,292.775421 
	C173.088303,292.868378 171.356552,292.952576 169.267914,293.054138 
	C169.127686,291.128754 168.999817,289.373077 168.849075,287.303589 
	C163.720123,287.303589 158.515747,287.303589 152.942657,287.303589 
	C152.942657,289.054932 152.942657,290.677246 152.612823,292.622223 
z"/>
<path fill="#FFFFFF" opacity="1.000000" stroke="none" 
	d="
M211.816315,278.062744 
	C220.240326,275.695465 228.187851,274.465454 236.019592,278.629364 
	C230.212128,282.915955 223.449661,279.693329 217.372833,281.376892 
	C216.567917,288.999756 216.567917,288.998291 224.255753,289.000702 
	C227.418854,289.001678 230.593460,288.866333 233.736969,289.117096 
	C234.521912,289.179749 235.206650,290.498230 235.937439,291.239502 
	C235.213501,291.820953 234.475220,292.922424 233.767883,292.902893 
	C227.205353,292.721680 220.633362,292.502594 214.103470,291.880981 
	C212.974335,291.773499 211.256592,289.790131 211.148544,288.556091 
	C210.847717,285.120850 211.250610,281.623993 211.816315,278.062744 
z"/>
<path fill="#F6C744" opacity="1.000000" stroke="none" 
	d="
M496.255859,120.055077 
	C500.550385,120.007637 504.424286,119.617928 508.158478,120.171196 
	C509.901245,120.429398 511.373566,122.513138 512.968445,123.769440 
	C511.152435,124.810539 508.824158,127.148148 507.609222,126.668083 
	C502.381531,124.602356 501.891815,127.209076 501.978271,131.238129 
	C502.073578,135.680038 502.000000,140.125580 502.000000,144.778366 
	C499.535553,144.778366 497.480988,144.778366 494.657166,144.778366 
	C495.037567,136.402878 495.407806,128.250916 496.255859,120.055077 
z"/>
<path fill="#FFFFFF" opacity="1.000000" stroke="none" 
	d="
M74.366791,276.000000 
	C80.481529,276.000275 86.140465,275.841522 91.778954,276.110931 
	C93.215157,276.179565 94.586433,277.606750 95.987534,278.409729 
	C94.646393,279.272766 93.404190,280.522522 91.938187,280.897614 
	C90.238617,281.332428 88.342453,280.998871 86.157715,280.998871 
	C86.157715,284.921692 86.157715,288.675049 86.157715,292.780090 
	C84.061623,292.875427 82.322350,292.954559 80.194695,293.051331 
	C80.194695,289.116821 80.194695,285.364899 80.194695,280.999969 
	C77.915268,280.999969 75.932938,281.307098 74.108109,280.902985 
	C72.643456,280.578644 71.369759,279.391968 70.011322,278.587982 
	C71.308678,277.725342 72.606033,276.862671 74.366791,276.000000 
z"/>
<path fill="#FFFFFF" opacity="1.000000" stroke="none" 
	d="
M305.999725,174.357758 
	C304.686218,175.760544 303.372955,176.742401 301.206116,178.362457 
	C301.206116,171.285919 301.206116,165.852539 301.206116,160.270035 
	C307.564514,158.574493 306.757538,166.272888 310.915527,167.469437 
	C310.915527,165.245224 310.915527,162.964325 310.915527,160.326996 
	C312.230072,160.226944 313.422607,160.136154 314.820068,160.029785 
	C314.820068,165.794128 314.820068,171.232208 314.820068,178.628220 
	C311.236938,175.672424 308.671082,173.555801 306.000000,171.352386 
	C306.000000,172.300446 306.000000,173.118637 305.999725,174.357758 
z"/>
<path fill="#FFFFFF" opacity="1.000000" stroke="none" 
	d="
M546.000000,166.121567 
	C546.000000,163.836853 546.000000,162.027405 546.000000,160.304306 
	C551.904358,158.668350 552.144348,164.900543 555.865845,166.894318 
	C555.865845,164.554520 555.865845,162.524506 555.865845,160.199997 
	C557.290039,160.120102 558.393860,160.058182 559.752686,159.981964 
	C559.752686,165.527969 559.752686,170.949051 559.752686,176.538651 
	C553.865479,178.978455 555.217468,171.172638 551.176697,170.952133 
	C551.176697,172.498001 551.176697,174.488159 551.176697,176.748550 
	C549.416260,176.865540 547.987183,176.960510 546.000000,177.092575 
	C546.000000,173.461349 546.000000,170.029099 546.000000,166.121567 
z"/>
<path fill="#FFFFFF" opacity="1.000000" stroke="none" 
	d="
M27.053951,293.000000 
	C26.234343,293.000000 25.902227,293.000000 25.570110,293.000000 
	C13.827851,293.000000 11.395621,289.994720 14.117600,278.459137 
	C14.352528,277.463531 16.066467,276.166412 17.069510,276.186768 
	C18.058910,276.206787 19.043581,277.696869 19.966900,278.606384 
	C20.134483,278.771454 19.979620,279.247864 20.002016,279.578674 
	C20.639828,289.000031 20.640423,288.999939 30.061399,289.000092 
	C32.386215,289.000122 34.766216,288.701782 37.014618,289.116516 
	C38.309566,289.355408 39.391655,290.748260 40.569561,291.621674 
	C40.340481,292.081116 40.111401,292.540558 39.882320,293.000000 
	C35.768692,293.000000 31.655067,293.000000 27.053951,293.000000 
z"/>
<path fill="#FFFFFF" opacity="1.000000" stroke="none" 
	d="
M567.497681,160.182281 
	C571.510254,160.293762 575.126343,160.601578 576.101685,166.263702 
	C573.434082,165.681183 571.140381,165.180313 567.521973,164.390167 
	C567.473755,166.584900 567.306396,169.232346 567.485474,171.856140 
	C567.509949,172.215195 569.260376,172.456467 570.527222,172.850357 
	C569.782715,170.465302 569.309265,168.948624 568.738037,167.118484 
	C571.430115,167.118484 573.399048,167.118484 575.746155,167.118484 
	C576.052002,170.670380 576.863708,174.185028 572.455322,176.103012 
	C569.257874,177.494125 566.370239,177.792633 563.953613,174.670578 
	C561.400146,171.371750 561.129272,165.882217 563.645935,162.930359 
	C564.560486,161.857620 565.952209,161.191696 567.497681,160.182281 
z"/>
<path fill="#FFFFFF" opacity="1.000000" stroke="none" 
	d="
M246.126038,171.330963 
	C249.226242,174.359955 249.860168,172.299118 249.967804,169.757553 
	C250.099579,166.645813 249.999207,163.524231 249.999207,160.209778 
	C251.739059,160.209778 253.137177,160.209778 255.188797,160.209778 
	C253.813873,165.193436 257.684784,170.990845 252.357132,174.893188 
	C250.496002,176.256409 247.098312,176.912888 245.020874,176.167709 
	C243.225433,175.523697 241.611572,172.577469 241.165695,170.394043 
	C240.520233,167.233276 241.000412,163.842636 241.000412,160.168777 
	C242.618927,160.093994 244.016708,160.029404 246.016479,159.936996 
	C246.016479,163.723801 246.016479,167.313797 246.126038,171.330963 
z"/>
<path fill="#FFFFFF" opacity="1.000000" stroke="none" 
	d="
M538.953613,177.000000 
	C536.506165,177.000000 534.533936,177.000000 532.281738,177.000000 
	C532.281738,171.386581 532.281738,165.989380 532.281738,160.294205 
	C536.258911,160.294205 540.326782,160.294205 544.698120,160.294205 
	C544.698120,161.374191 544.698120,162.546585 544.698120,164.079224 
	C542.082581,164.079224 539.647949,164.079224 537.213318,164.079224 
	C537.069397,164.644974 536.925537,165.210709 536.781616,165.776459 
	C538.123779,166.184784 539.489685,166.530258 540.799072,167.025269 
	C541.571533,167.317291 542.254456,167.846237 542.977600,168.268646 
	C542.242676,168.845306 541.582397,169.587875 540.755493,169.960052 
	C539.492798,170.528412 538.114929,170.840881 536.785950,171.261978 
	C536.942261,171.821960 537.098572,172.381943 537.254822,172.941925 
	C539.684387,172.941925 542.113892,172.941925 544.766724,172.941925 
	C544.766724,174.373886 544.766724,175.452316 544.766724,177.000000 
	C543.002686,177.000000 541.215759,177.000000 538.953613,177.000000 
z"/>
<path fill="#FFFFFF" opacity="1.000000" stroke="none" 
	d="
M270.000000,169.812042 
	C269.645538,176.115646 267.632690,177.197342 257.311493,176.895996 
	C257.311493,171.400833 257.311493,165.887817 257.311493,160.378387 
	C268.116913,159.156326 271.233154,162.019501 270.000000,169.812042 
M265.999725,168.493988 
	C266.012756,165.258591 264.483521,163.840637 261.349274,164.150787 
	C261.349274,167.279709 261.349274,170.099426 261.349274,172.919128 
	C261.766174,173.158630 262.183105,173.398117 262.600006,173.637604 
	C263.732635,172.198929 264.865265,170.760254 265.999725,168.493988 
z"/>
<path fill="#FFFFFF" opacity="1.000000" stroke="none" 
	d="
M439.000000,169.948853 
	C439.000000,166.492508 439.000000,163.520554 439.000000,160.277969 
	C440.290985,160.277969 441.345459,160.277969 442.786987,160.277969 
	C442.899384,162.216843 443.020416,164.304581 443.162750,166.759155 
	C444.334778,166.819717 445.513214,166.880615 446.914612,166.953033 
	C446.914612,164.575485 446.914612,162.618042 446.914612,160.330917 
	C448.621460,160.330917 450.129303,160.330917 451.829773,160.330917 
	C451.829773,165.693207 451.829773,170.972382 451.829773,176.625473 
	C450.406982,176.625473 448.906891,176.625473 447.172607,176.625473 
	C447.172607,174.692841 447.172607,172.743622 447.172607,170.393478 
	C445.819214,170.250198 444.643280,170.125702 443.065033,169.958618 
	C443.065033,172.374451 443.065033,174.460724 443.065033,176.768799 
	C441.624146,176.768799 440.550385,176.768799 439.000000,176.768799 
	C439.000000,174.673462 439.000000,172.553345 439.000000,169.948853 
z"/>
<path fill="#FFFFFF" opacity="1.000000" stroke="none" 
	d="
M235.129196,160.029831 
	C236.392960,160.852402 237.845734,161.667725 237.890442,162.554123 
	C238.123825,167.178268 237.999313,171.820480 237.999313,176.724640 
	C236.701920,176.724640 235.636230,176.724640 234.213425,176.724640 
	C234.100418,174.775177 233.979309,172.685959 233.836914,170.229416 
	C232.653976,170.177444 231.474854,170.125626 230.074249,170.064087 
	C230.074249,172.435928 230.074249,174.395996 230.074249,176.675903 
	C228.364609,176.675903 226.856140,176.675903 225.163803,176.675903 
	C225.163803,171.285889 225.163803,166.004318 225.163803,160.361542 
	C226.614410,160.361542 228.116287,160.361542 229.842285,160.361542 
	C229.842285,162.336014 229.842285,164.287140 229.842285,166.627319 
	C231.197525,166.755936 232.376526,166.867828 233.565125,166.980621 
	C233.965408,164.468445 234.317001,162.261917 235.129196,160.029831 
z"/>
<path fill="#FFFFFF" opacity="1.000000" stroke="none" 
	d="
M421.969971,162.870865 
	C420.360809,163.554947 418.754456,163.679596 417.204010,164.042938 
	C416.424194,164.225693 415.746002,164.842087 415.021851,165.262375 
	C415.757141,165.841125 416.433075,166.527451 417.241669,166.973282 
	C418.438507,167.633194 419.729492,168.122360 420.980377,168.684235 
	C419.772736,169.123123 418.527130,169.481598 417.370026,170.027634 
	C416.524200,170.426788 415.794769,171.072632 415.013458,171.608490 
	C415.863617,172.072189 416.669891,172.776718 417.574493,172.941513 
	C418.839172,173.171860 420.177185,172.999603 421.738525,172.999603 
	C421.738525,174.324493 421.738525,175.408203 421.738525,176.747467 
	C418.097321,176.747467 414.339508,176.747467 410.288330,176.747467 
	C410.288330,171.402390 410.288330,166.002380 410.288330,160.001984 
	C413.426697,160.001984 416.697906,159.856674 419.937592,160.111664 
	C420.679413,160.170059 421.312653,161.607361 421.969971,162.870865 
z"/>
<path fill="#FFFFFF" opacity="1.000000" stroke="none" 
	d="
M298.366486,172.164886 
	C297.767303,176.849777 294.510498,177.283173 291.369873,176.880371 
	C288.358887,176.494202 285.001648,175.720810 285.959381,171.141357 
	C286.225830,169.867264 286.189270,168.457428 285.965759,167.166321 
	C285.186646,162.666168 287.192627,160.422699 291.538055,160.015198 
	C295.304718,159.661957 298.447968,162.302795 298.935852,166.442474 
	C299.144623,168.214081 298.773590,170.054016 298.366486,172.164886 
M290.000031,167.711227 
	C290.000244,168.375824 289.778748,169.152313 290.046082,169.682159 
	C290.634460,170.848206 291.469635,171.889725 292.204071,172.982071 
	C293.132172,171.878738 294.903992,170.693451 294.806488,169.689758 
	C294.623657,167.807495 293.359131,166.030319 292.544495,164.209442 
	C291.696716,165.097778 290.848938,165.986115 290.000031,167.711227 
z"/>
<path fill="#FFFFFF" opacity="1.000000" stroke="none" 
	d="
M349.627014,176.617828 
	C347.379242,177.168701 345.802460,177.278580 345.941467,174.390274 
	C346.162659,169.794052 346.000519,165.179398 346.000519,160.615448 
	C353.926880,159.172119 358.729370,160.890259 358.998993,165.144348 
	C359.273163,169.469711 357.226410,170.919144 350.231812,171.074463 
	C350.137024,172.788559 350.040192,174.539124 349.627014,176.617828 
z"/>
<path fill="#FFFFFF" opacity="1.000000" stroke="none" 
	d="
M585.102539,172.999893 
	C587.872375,173.080109 591.069214,172.071442 589.738098,176.744568 
	C586.096497,176.744568 582.340576,176.744568 578.289185,176.744568 
	C578.289185,171.405457 578.289185,166.006653 578.289185,160.301041 
	C581.913513,160.301041 585.648499,160.301041 589.692627,160.301041 
	C589.692627,161.364822 589.692627,162.537628 589.692627,164.001740 
	C587.721741,164.001740 585.906128,163.874252 584.123962,164.062943 
	C583.385315,164.141144 582.718384,164.895782 582.018799,165.342804 
	C582.781738,165.894775 583.538086,166.456467 584.315002,166.988037 
	C584.428406,167.065628 584.651733,166.960709 584.804749,167.005875 
	C586.197937,167.417175 587.586853,167.843048 588.976990,168.264664 
	C587.577698,168.843155 586.176331,169.416580 584.779907,170.001968 
	C583.858887,170.388077 582.945068,170.791397 582.028015,171.186996 
	C582.899536,171.791260 583.771118,172.395523 585.102539,172.999893 
z"/>
<path fill="#FFFFFF" opacity="1.000000" stroke="none" 
	d="
M389.572571,176.989380 
	C388.122803,176.756409 386.582214,176.866714 386.115814,176.211914 
	C383.901642,173.103104 382.021881,172.532196 379.411255,175.887222 
	C378.688049,176.816650 376.680939,176.747009 374.308319,177.397446 
	C376.487671,171.415604 378.078247,166.435501 380.230133,161.711090 
	C380.616150,160.863647 384.652252,160.582993 384.755615,160.864883 
	C386.698456,166.162354 388.302124,171.584229 389.572571,176.989380 
z"/>
<path fill="#FFFFFF" opacity="1.000000" stroke="none" 
	d="
M478.651489,160.409195 
	C478.949463,162.587036 478.949463,164.414902 478.949463,166.620621 
	C480.547577,166.620621 482.048004,166.620621 483.547302,166.626678 
	C485.541992,164.914352 481.092224,159.190720 487.783539,160.169876 
	C487.783539,165.675568 487.783539,171.098068 487.783539,176.759247 
	C486.650635,176.759247 485.581848,176.759247 484.200745,176.759247 
	C484.091003,174.710388 483.979065,172.620804 483.853088,170.269226 
	C482.367279,170.269226 480.961792,170.269226 479.549744,170.269226 
	C477.243530,171.850647 482.076416,177.761551 475.001862,176.854874 
	C475.001862,171.991806 474.861877,167.041885 475.151428,162.117203 
	C475.195312,161.371033 477.236267,160.742294 478.651489,160.409195 
z"/>
<path fill="#FFFFFF" opacity="1.000000" stroke="none" 
	d="
M282.810211,163.511276 
	C280.537445,164.189484 278.429840,164.498703 275.041046,164.995911 
	C279.637634,167.430023 286.138428,166.926544 283.586639,173.865707 
	C282.244568,177.515259 278.947998,177.899109 269.437225,175.019531 
	C271.781525,173.638901 273.027863,172.425446 274.430023,172.205490 
	C276.033813,171.953918 277.776093,172.585510 279.458221,172.833374 
	C279.535309,172.403030 279.612366,171.972687 279.689423,171.542358 
	C278.634888,171.091599 277.571228,170.239777 276.527405,170.263412 
	C273.046783,170.342239 271.154602,168.491592 271.109802,165.375641 
	C271.058075,161.776123 274.178986,160.548843 277.031860,160.146362 
	C279.334412,159.821548 282.170166,159.843719 282.810211,163.511276 
z"/>
<path fill="#FFFFFF" opacity="1.000000" stroke="none" 
	d="
M500.701202,166.267517 
	C502.204224,169.835144 503.447815,173.091995 505.281097,177.893219 
	C502.777039,176.646637 501.213654,175.442810 499.485809,175.120453 
	C497.514191,174.752609 495.345123,174.922958 493.359436,175.332474 
	C492.024902,175.607712 490.859802,176.704361 489.618927,177.433502 
	C489.207764,177.009003 488.796631,176.584488 488.385468,176.159973 
	C490.565521,171.244278 492.656738,166.284729 495.035156,161.466965 
	C495.341095,160.847305 497.876343,160.467987 498.115601,160.824692 
	C499.147583,162.363281 499.709045,164.217453 500.701202,166.267517 
z"/>
<path fill="#FFFFFF" opacity="1.000000" stroke="none" 
	d="
M428.000671,167.272217 
	C428.258118,169.478806 428.516205,171.270844 428.746948,172.873306 
	C431.921967,171.981659 434.284851,171.318085 437.185120,170.503586 
	C435.179901,176.016083 432.133850,178.181671 428.271149,176.928085 
	C422.700653,175.120300 424.312225,170.227402 423.947693,166.114120 
	C423.523132,161.323898 427.318695,160.425018 430.183014,160.261642 
	C433.076660,160.096619 436.880249,160.903763 437.063751,166.304062 
	C435.025208,165.819580 433.261200,165.071472 431.509369,165.098984 
	C430.331085,165.117493 429.170044,166.233002 428.000671,167.272217 
z"/>
<path fill="#FFFFFF" opacity="1.000000" stroke="none" 
	d="
M465.193146,172.644516 
	C467.825287,172.163177 470.167389,171.386719 473.044769,170.432816 
	C471.005096,176.942474 465.844818,178.957825 461.354553,175.615326 
	C460.520966,174.994812 460.230286,173.403488 460.051849,172.206146 
	C459.834259,170.746231 460.204529,169.194916 459.961304,167.743317 
	C459.260681,163.562332 461.209686,160.695084 464.996521,160.197586 
	C468.473511,159.740784 472.217102,160.635147 473.017365,165.919373 
	C471.542999,165.919373 469.810883,166.460693 468.836548,165.830490 
	C463.025909,162.072235 464.038177,166.554947 464.046326,169.691650 
	C464.048615,170.578308 464.602325,171.463531 465.193146,172.644516 
z"/>
<path fill="#FFFFFF" opacity="1.000000" stroke="none" 
	d="
M361.299438,160.462433 
	C367.919678,159.247086 363.387695,164.679474 366.343658,166.867828 
	C366.612030,166.880951 368.020599,166.949814 369.408447,167.017654 
	C369.967804,164.436111 370.484741,162.050461 371.001678,159.664795 
	C371.574310,159.799927 372.146912,159.935043 372.719543,160.070160 
	C372.719543,165.631668 372.719543,171.193176 372.719543,176.754684 
	C372.207703,176.880997 371.695892,177.007294 371.184052,177.133591 
	C370.621124,175.035828 370.058197,172.938049 369.366730,170.361313 
	C368.428741,170.361313 366.911407,170.361313 365.164429,170.361313 
	C365.164429,172.317795 365.164429,174.271576 365.164429,176.614822 
	C363.804932,176.753632 362.622406,176.874374 361.040283,177.035934 
	C361.040283,171.427933 361.040283,166.139755 361.299438,160.462433 
z"/>
<path fill="#FFFFFF" opacity="1.000000" stroke="none" 
	d="
M471.000000,303.187683 
	C471.002167,301.719452 470.623016,300.454865 471.092224,299.780731 
	C471.875061,298.656097 473.118622,297.388367 474.328491,297.197601 
	C475.061523,297.082062 476.802032,298.830627 476.872284,299.827454 
	C477.164246,303.970184 477.165405,308.158020 476.863892,312.299500 
	C476.794067,313.258789 474.945831,314.947784 474.207947,314.803833 
	C473.012817,314.570679 471.320831,313.215729 471.148529,312.127136 
	C470.711487,309.364990 471.001251,306.487854 471.000000,303.187683 
z"/>
<path fill="#FFFFFF" opacity="1.000000" stroke="none" 
	d="
M519.000000,168.994934 
	C519.000000,165.878967 519.000000,163.248077 519.000000,160.236206 
	C520.339539,160.167755 521.503723,160.108276 523.046448,160.029465 
	C523.046448,164.510529 523.046448,168.584000 523.046448,172.847321 
	C525.670898,172.847321 527.942444,172.847321 530.603577,172.847321 
	C530.749756,174.186874 530.878052,175.362503 531.033386,176.785645 
	C526.992920,176.785645 523.257874,176.785645 519.000000,176.785645 
	C519.000000,174.323593 519.000000,171.901794 519.000000,168.994934 
z"/>
<path fill="#FFFFFF" opacity="1.000000" stroke="none" 
	d="
M404.021027,165.337097 
	C404.002563,169.285843 404.002563,172.764877 404.002563,176.638550 
	C402.776855,176.754684 401.606079,176.865616 400.179352,177.000793 
	C400.179352,172.743393 400.179352,168.795959 400.179352,165.538528 
	C398.292511,163.913071 396.836731,162.658920 395.380920,161.404785 
	C395.639893,161.014954 395.898895,160.625122 396.157867,160.235291 
	C399.915680,160.235291 403.673523,160.235291 407.444855,160.235291 
	C409.824371,164.343338 405.490753,163.551712 404.021027,165.337097 
z"/>
<path fill="#FFFFFF" opacity="1.000000" stroke="none" 
	d="
M507.191772,176.968079 
	C506.485962,176.532974 506.059631,176.127121 506.055969,175.717514 
	C506.010376,170.617447 506.026154,165.516876 506.026154,160.214203 
	C507.393585,160.214203 508.457214,160.214203 509.890808,160.214203 
	C509.890808,164.303314 509.890808,168.379257 509.890808,172.808548 
	C512.283264,172.920776 514.348877,173.017654 516.772522,173.131348 
	C516.833984,174.350754 516.893005,175.521667 516.967285,176.995575 
	C513.574585,176.995575 510.621124,176.995575 507.191772,176.968079 
z"/>
<path fill="#FFFFFF" opacity="1.000000" stroke="none" 
	d="
M100.694199,282.981567 
	C94.043724,283.283905 98.359512,278.633972 96.513168,276.223389 
	C98.916878,276.118103 100.633728,276.042908 103.678284,275.909546 
	C102.689285,278.660217 101.915321,280.812805 100.694199,282.981567 
z"/>
<path fill="#000000" opacity="1.000000" stroke="none" 
	d="
M133.214737,136.663361 
	C132.326187,130.466965 131.330917,124.555275 131.346573,118.646263 
	C131.352097,116.565819 133.833389,114.491943 135.184265,112.415062 
	C135.936432,112.490959 136.688599,112.566849 137.440781,112.642746 
	C138.293854,115.350235 139.594894,118.009537 139.892639,120.776772 
	C140.315445,124.706467 140.043076,128.716202 139.988480,132.690643 
	C139.927673,137.117355 137.893387,138.425400 133.214737,136.663361 
z"/>
<path fill="#000000" opacity="1.000000" stroke="none" 
	d="
M478.477478,135.277878 
	C480.624268,135.063095 482.416840,135.063095 484.209442,135.063095 
	C484.455872,135.375763 484.702332,135.688446 484.948761,136.001114 
	C483.351318,137.204742 481.753876,138.408386 480.156433,139.612000 
	C479.478729,138.238892 478.801025,136.865768 478.477478,135.277878 
z"/>
<path fill="#000000" opacity="1.000000" stroke="none" 
	d="
M420.000000,306.000122 
	C420.197845,308.611237 420.174500,310.287048 417.084503,310.066833 
	C413.187744,309.789093 409.256195,309.999817 405.176971,309.999817 
	C405.176971,307.193665 405.176971,304.806671 405.176971,302.000214 
	C409.256134,302.000214 413.187531,302.210846 417.084106,301.933228 
	C420.173767,301.713104 420.198181,303.388489 420.000000,306.000122 
z"/>
<path fill="#000000" opacity="1.000000" stroke="none" 
	d="
M265.998840,168.907791 
	C264.865265,170.760254 263.732635,172.198929 262.600006,173.637604 
	C262.183105,173.398117 261.766174,173.158630 261.349274,172.919128 
	C261.349274,170.099426 261.349274,167.279709 261.349274,164.150787 
	C264.483521,163.840637 266.012756,165.258591 265.998840,168.907791 
z"/>
<path fill="#000000" opacity="1.000000" stroke="none" 
	d="
M290.000610,167.292831 
	C290.848938,165.986115 291.696716,165.097778 292.544495,164.209442 
	C293.359131,166.030319 294.623657,167.807495 294.806488,169.689758 
	C294.903992,170.693451 293.132172,171.878738 292.204071,172.982086 
	C291.469635,171.889725 290.634460,170.848206 290.046082,169.682159 
	C289.778748,169.152313 290.000244,168.375824 290.000610,167.292831 
z"/>
</svg>